<?xml version="1.0" encoding="UTF-8"?>
<svg id="Layer_2" data-name="Layer 2" xmlns="http://www.w3.org/2000/svg" viewBox="0 0 1647.8 344.61">
  <defs>
    <style>
      .cls-1, .cls-2, .cls-3 {
        stroke-width: 0px;
      }

      .cls-1, .cls-3 {
        fill: #475862;
      }

      .cls-2 {
        fill: #aa8724;
      }

      .cls-2, .cls-3 {
        fill-rule: evenodd;
      }
    </style>
  </defs>
  <g id="Layer_1-2" data-name="Layer 1">
    <g>
      <polygon class="cls-2" points="548.05 7.97 645.53 7.97 645.53 56.31 548.05 153.79 548.05 7.97"/>
      <polygon class="cls-2" points="342.95 150.41 342.95 7.97 440.43 7.97 440.43 52.93 342.95 150.41"/>
      <path class="cls-3" d="M645.53,85.57v119.62c0,19.5-2.94,38-8.75,55.34-5.81,17.42-14.92,32.6-27.35,45.63-12.42,13.03-25.43,22.12-39.03,27.44-18.97,7.32-41.76,11.02-68.29,11.02-15.36,0-32.13-1.16-50.28-3.39-18.16-2.24-33.37-6.71-45.58-13.41-12.2-6.71-23.38-16.18-33.45-28.52-10.15-12.33-17.05-25.05-20.8-38.15-6.03-21.04-9.04-39.69-9.04-55.95v-25.52l97.48-97.48v127.7c0,18.03,4.78,32.14,14.26,42.23,9.56,10.17,22.79,15.26,39.7,15.26s29.85-5.01,39.4-15.03c9.48-9.94,14.26-24.12,14.26-42.47v-26.85l97.48-97.48Z"/>
      <polygon class="cls-3" points="981.11 82.57 981.11 341.24 883.19 341.24 883.19 180.49 981.11 82.57"/>
      <polygon class="cls-2" points="883.19 10.14 981.11 10.14 981.11 53.32 883.19 151.24 883.19 10.14"/>
      <path class="cls-1" d="M1440.43,266.32V85.52h25.72c21.94,0,37.56,2.39,46.87,7.09,9.23,4.78,16.49,13.03,21.78,24.82,5.29,11.87,7.89,30.98,7.89,57.49,0,35.07-5.84,59.04-17.6,71.98-11.76,12.95-31.25,19.42-58.47,19.42h-26.2ZM1335.8,341.24h155.69c30.62,0,55.47-4.09,74.33-12.18,18.86-8.17,34.48-19.81,46.87-34.99,12.31-15.26,21.23-32.91,26.75-53.1,5.6-20.19,8.36-41.54,8.36-64.12,0-35.38-4.1-62.81-12.39-82.31-8.21-19.5-19.65-35.84-34.33-49.02-14.68-13.18-30.38-21.97-47.19-26.36-22.96-6.01-43.8-9.02-62.42-9.02h-155.69v331.1Z"/>
      <path class="cls-3" d="M343.41,6.82h-98.27c-8.99,22.59-56,103.88-74.84,125.08L99.02,7.18,1.05,5.82,0,338.19l89.48,1.29-1.15-183.86c15.75,9.26,61.1,99.03,85.73,120.06,12.67-23.63,62.97-104.61,79.91-121.6l-1.04,183.67,90.95,1.07c-.38-110.74-.38-219.23-.46-332.01"/>
      <polygon class="cls-1" points="973.55 341.24 1082.99 341.24 1158.79 127.79 1234.65 341.24 1340.95 341.24 1195.64 5.85 1114.87 6.27 973.55 341.24"/>
      <path class="cls-3" d="M861.01,20v95.68c0,1.64-112.15-71.9-127.34-22.77-14.92,48.28,141.3,33.12,169.08,106.38,27.78,73.26-16.35-15.77-16.35-15.77l-59.29,60.9c-36.64-54.78-168.96-10.38-191.63-132.22-3.1-13.47-2.24-12.2.64,3.25,0,0,1.86-70.75,71.65-102.86,69.79-32.11,153.25,7.42,153.25,7.42"/>
      <path class="cls-3" d="M678.88,230.22s47.67,49.51,118.76,36.59l-74.43,74.43c-23.21-5.71-57.11-19.44-94.33-52.22l50-58.81Z"/>
    </g>
  </g>
</svg>