<?xml version="1.0" encoding="utf-8"?>
<!-- Generator: Adobe Illustrator 28.1.0, SVG Export Plug-In . SVG Version: 6.00 Build 0)  -->
<svg version="1.1" id="bp" xmlns="http://www.w3.org/2000/svg" xmlns:xlink="http://www.w3.org/1999/xlink" x="0px" y="0px"
	 viewBox="0 0 1828.7 2500" style="enable-background:new 0 0 1828.7 2500;" xml:space="preserve">
<style type="text/css">
	.st0{fill-rule:evenodd;clip-rule:evenodd;fill:#33A457;}
	.st1{fill-rule:evenodd;clip-rule:evenodd;fill:#B1CD49;}
	.st2{fill-rule:evenodd;clip-rule:evenodd;fill:#F8D930;}
	.st3{fill-rule:evenodd;clip-rule:evenodd;fill:#FFFFFF;}
</style>
<g>
	<path class="st0" d="M912.1,1537C912.1,1537,912.1,1537,912.1,1537L912.1,1537L912.1,1537L912.1,1537L912.1,1537L912.1,1537
		L912.1,1537z M552.4,914c5-97,23.7-184.9,42.9-247.3c54.8,35.5,125.7,90.8,191.9,161.9c37.9-89.4,85.5-165.6,124.9-217.7
		c39.4,52.1,87,128.3,124.9,217.7c66.2-71.1,137-126.3,191.9-161.8c19.2,62.4,37.9,150.3,42.9,247.3c86.5-44.1,172-71.9,235.6-86.5
		c-3.3,65.3-15.8,154.2-44.2,247.1c96.4-11.9,186.1-8.7,251-0.6c-25.5,60.2-67.6,139.5-126.1,217c94.6,21.8,177.9,55.5,236.1,85.2
		c-44.5,47.8-111.2,108-192.7,160.8c81.5,52.8,148.2,113,192.7,160.8c-58.2,29.8-141.4,63.4-236.1,85.2
		c58.5,77.5,100.6,156.9,126.1,217c-64.8,8-154.6,11.2-251-0.7c28.4,92.9,40.9,181.8,44.2,247.1c-63.7-14.6-149.1-42.3-235.7-86.5
		c-5,97-23.7,184.8-42.9,247.3c-54.9-35.5-125.7-90.8-191.9-161.8c-37.9,89.4-85.5,165.6-124.9,217.7
		c-39.4-52.1-87-128.3-124.9-217.7c-66.2,71.1-137,126.3-191.9,161.8c-19.2-62.5-37.9-150.3-42.9-247.3
		c-86.5,44.1-171.9,71.9-235.6,86.5c3.3-65.3,15.8-154.2,44.2-247.1c-96.4,11.9-186.2,8.7-251,0.7c25.4-60.2,67.6-139.5,126.1-217
		c-94.6-21.8-177.9-55.5-236.1-85.2c44.5-47.8,111.2-108,192.7-160.8C111.2,1484.2,44.5,1424,0,1376.2
		c58.2-29.8,141.5-63.4,236.1-85.2c-58.5-77.5-100.6-156.9-126.1-217.1c64.8-8.1,154.6-11.3,251,0.6
		c-28.4-92.9-40.9-181.8-44.2-247.1C380.5,842.1,465.9,869.8,552.4,914z M912.2,1537L912.2,1537L912.2,1537z"/>
	<path class="st1" d="M912.2,1537L912.2,1537L912.2,1537L912.2,1537L912.2,1537L912.2,1537L912.2,1537L912.2,1537L912.2,1537z
		 M382.6,1630.4c-68.8-23.1-133-56.4-189.9-93.4c56.9-36.9,121.1-70.3,189.9-93.4c-56.8-45.2-105.7-98.5-146.6-152.7
		c66.1-15.2,137.8-24.6,210.4-22.8c-37.9-62-65.6-128.7-85.5-193.6c67.4,8.3,137.9,24,205.5,50.6c-14.4-71.2-17.6-143.4-14.1-211.2
		c60.5,30.8,121.4,69.7,175.9,117.8c10.8-71.8,32.5-140.8,58.9-203.3c46.3,49.7,90.2,107.1,124.9,170.9
		c34.7-63.8,78.7-121.2,124.9-170.9c26.5,62.5,48.2,131.5,58.9,203.3c54.4-48.1,115.4-87,175.9-117.8c3.5,67.8,0.3,140-14.1,211.2
		c67.6-26.6,138.2-42.3,205.5-50.6c-19.9,64.9-47.6,131.7-85.5,193.6c72.6-1.9,144.3,7.5,210.4,22.8
		c-40.9,54.2-89.8,107.5-146.5,152.7c68.9,23.1,133,56.4,189.9,93.4c-56.9,36.9-121.1,70.3-189.9,93.4
		c56.8,45.2,105.7,98.5,146.5,152.7c-66.1,15.2-137.8,24.6-210.4,22.8c37.9,61.9,65.6,128.7,85.5,193.6c-67.4-8.3-138-24-205.5-50.6
		c14.4,71.2,17.6,143.4,14.1,211.2c-60.4-30.8-121.4-69.7-175.8-117.8c-10.8,71.8-32.5,140.8-59,203.3
		c-46.2-49.6-90.2-107.1-124.9-170.9c-34.7,63.8-78.7,121.2-124.9,170.9c-26.5-62.5-48.2-131.5-58.9-203.3
		c-54.4,48.1-115.4,87-175.9,117.8c-3.5-67.8-0.3-140,14.1-211.2c-67.6,26.6-138.2,42.3-205.5,50.6c19.9-64.9,47.6-131.7,85.5-193.6
		c-72.6,1.9-144.3-7.5-210.4-22.8C276.9,1728.9,325.8,1675.6,382.6,1630.4L382.6,1630.4z"/>
	<path class="st2" d="M912.1,1537L912.1,1537L912.1,1537C912.2,1537,912.2,1537,912.1,1537L912.1,1537L912.1,1537L912.1,1537
		L912.1,1537z M912.2,1537L912.2,1537L912.2,1537C912.2,1537,912.2,1537,912.2,1537L912.2,1537L912.2,1537L912.2,1537L912.2,1537
		L912.2,1537L912.2,1537L912.2,1537L912.2,1537z M848.2,1174.5c11.8-62.5,34.5-121.1,63.9-175.2c29.4,54.1,52.1,112.7,63.9,175.2
		c32.4-54.7,73.8-102,119.9-142.7c9.1,60.9,10.5,123.8,0.2,186.5c49.2-40.3,104.3-70.6,161.6-93.1c-12.2,60.3-32.5,119.9-63.7,175.3
		c60-21,122.1-30.7,183.7-32.2c-32.1,52.5-71.6,101.5-119.8,142.9c63.6,0.8,125.3,13,183.6,32.5c-48.1,38.3-101.9,70.9-161.4,93.4
		c59.5,22.4,113.3,55,161.4,93.3c-58.3,19.6-120,31.8-183.6,32.5c48.2,41.4,87.6,90.5,119.7,142.9c-61.5-1.6-123.7-11.2-183.7-32.2
		c31.1,55.4,51.4,115,63.6,175.3c-57.3-22.5-112.4-52.8-161.5-93.1c10.3,62.7,9,125.6-0.2,186.5c-46.1-40.8-87.5-88.1-119.9-142.7
		c-11.8,62.5-34.5,121.1-63.9,175.2c-29.4-54.1-52.1-112.7-63.9-175.2c-32.4,54.7-73.8,102-120,142.8
		c-9.1-60.9-10.5-123.7-0.2-186.5c-49.2,40.3-104.3,70.6-161.6,93.1c12.2-60.3,32.5-119.9,63.6-175.3c-60,21-122.1,30.7-183.7,32.2
		c32.1-52.5,71.6-101.5,119.7-142.9c-63.6-0.8-125.3-13-183.6-32.5c48.1-38.3,101.9-70.9,161.4-93.3c-59.5-22.5-113.3-55-161.4-93.4
		c58.4-19.6,120.1-31.8,183.6-32.5c-48.2-41.4-87.6-90.5-119.7-142.9c61.5,1.6,123.7,11.2,183.7,32.2
		c-31.1-55.4-51.4-115-63.6-175.3c57.3,22.5,112.4,52.8,161.6,93.1c-10.3-62.7-9-125.6,0.2-186.5
		C774.4,1072.5,815.8,1119.9,848.2,1174.5L848.2,1174.5z"/>
	<path class="st3" d="M847.5,1359.3c-11.1-61.1-10.9-123.7,0.8-184.8c31.8,53.4,53.5,112.1,63.9,173.4
		c10.5-61.2,32.1-120,63.9-173.4c11.1,58.5,12.5,120.3,0.8,184.7c30.8-53.9,71.2-101.8,119.4-141c-10,61.3-31.1,120.2-62.5,173.9
		c47.4-40.2,101.7-71.3,160.4-91.7c-30.3,54.2-70.4,102.4-118.2,142c58.2-21.6,120-32.2,182.1-31.3c-47,40.6-101.2,72.1-159.6,93
		c62.1-0.3,123.8,10.8,181.8,32.8c-58.1,22-119.7,33.2-181.8,32.8c58.5,20.9,112.6,52.5,159.6,93c-62.1,0.9-123.8-9.8-182.1-31.3
		c47.8,39.7,87.9,87.8,118.2,142c-58.6-20.4-113-51.5-160.4-91.7c31.3,53.6,52.5,112.6,62.5,173.9c-48.1-39.3-88.6-87.1-119.4-141
		c11.7,64.5,10.3,126.3-0.7,184.8c-31.8-53.4-53.5-112.1-63.9-173.4c-10.4,61.2-32.1,120-63.9,173.4c-11.6-61-11.9-123.7-0.8-184.8
		c-30.8,54-71.2,101.8-119.3,141c9.9-61.3,31.1-120.3,62.5-173.9c-47.4,40.2-101.7,71.3-160.4,91.7c30.3-54.2,70.4-102.4,118.2-142
		c-58.2,21.6-120,32.2-182.1,31.3c47-40.6,101.1-72.1,159.6-93c-62.1,0.3-123.8-10.8-181.8-32.8c58.1-22,119.7-33.2,181.8-32.9
		c-58.5-20.9-112.6-52.5-159.6-93c59.5-0.7,120.6,8.6,182.1,31.3c-47.8-39.7-87.9-87.8-118.2-142c58.6,20.4,113,51.5,160.4,91.7
		c-31.3-53.6-52.5-112.6-62.5-173.9C776.2,1257.5,816.7,1305.3,847.5,1359.3L847.5,1359.3z"/>
	<path class="st0" d="M1158,36.8V489h67.3v-43.4c27.7,37.1,58.5,54.2,103.1,54.2c83,0,142.2-67.4,142.2-175
		c0-110.7-60.4-178-141.5-178c-44.7,0-79.2,18.9-103.1,54.7V36.8H1158z M1312.7,208.5c53.4,0,86.8,41.5,86.8,117
		c0,71.7-33.3,112.6-86.8,112.6c-56,0-88.1-39.6-88.1-114.5C1224.6,247.5,1254.8,208.5,1312.7,208.5z M1670.9,208.5
		c52.8,0,86.8,41.5,86.8,113.2c0,75.5-33.3,116.4-86.8,116.4c-57.2,0-88.1-38.4-88.1-112.6C1582.8,248.1,1614.2,208.5,1670.9,208.5
		L1670.9,208.5z M1584,448.1c23.3,34,58.5,51.7,103.1,51.7c81.1,0,141.5-67.4,141.5-178.1c0-107.5-59.1-174.9-142.2-174.9
		c-45.3,0-76.1,17.6-103.1,57.2v-46.5h-67.3v463.7h67.9L1584,448.1L1584,448.1L1584,448.1z"/>
</g>
</svg>
