<?xml version="1.0" encoding="UTF-8"?>
<svg id="Layer_2" data-name="Layer 2" xmlns="http://www.w3.org/2000/svg" viewBox="0 0 324 324">
  <defs>
    <style>
      .cls-1 {
        stroke: #000;
        stroke-miterlimit: 10;
      }

      .cls-2 {
        stroke-width: 0px;
      }
    </style>
  </defs>
  <g id="Layer_1-2" data-name="Layer 1">
    <path class="cls-2" d="M324,154.08v15.84c-.11.64-.28,1.28-.32,1.93-.76,13.11-3.01,25.98-7.06,38.46-12.86,39.65-37.21,70.23-73.03,91.54-19.75,11.75-41.17,18.73-64.05,21.16-3.21.34-6.42.66-9.63.99h-15.48c-3.39-.33-6.79-.64-10.18-1.01-21.32-2.29-41.38-8.62-60.13-18.99-26.32-14.57-47.11-34.87-62.28-60.86-11.46-19.64-18.42-40.79-20.85-63.42-.35-3.27-.67-6.53-1-9.8,0-5.28,0-10.56,0-15.84.33-3.21.65-6.42.99-9.63,2.22-21.21,8.47-41.19,18.74-59.84,16.04-29.12,38.86-51.41,68.38-66.73C105.8,8.7,124.61,3.08,144.45.99,147.66.65,150.87.33,154.08,0c5.28,0,10.56,0,15.84,0,.64.11,1.29.27,1.93.31,12.93.76,25.6,2.98,37.95,6.89,34.71,10.99,62.78,31.28,84.03,60.82,16.44,22.86,26.14,48.4,29.18,76.42.35,3.21.66,6.42.99,9.64ZM19.45,161.96c.02,78.69,64,142.67,142.61,142.6,78.62-.07,142.45-63.91,142.5-142.52.05-78.61-63.97-142.63-142.61-142.59-78.58.04-142.52,63.99-142.5,142.52Z"/>
    <g>
      <path class="cls-1" d="M209.62,210.38c5.77-1.73,11.49-3.67,17.33-5.12,3.74-.93,7.67-1.54,11.5-1.53,4.03.01,7.4,2.05,9.11,5.93,1.68,3.82.67,7.41-1.82,10.51-1.28,1.59-2.83,3.11-4.56,4.15-23.38,14.07-47.56,26.53-73.19,36.05-7.32,2.72-14.74,2.29-22.2,1.52-24.89-2.57-49.11-8.45-73.18-15.07-.54-.15-1.08-.3-1.6-.47-2.45-.81-3.52-2.57-2.85-4.7.61-1.94,2.49-2.78,4.86-2.18,12.59,3.14,25.14,6.45,37.79,9.37,13.6,3.14,27.38,5.19,41.31,6.41,7.42.65,14.03-1.57,20.59-4.28,21.6-8.93,42.43-19.43,62.55-31.32,1.76-1.04,3.46-2.34,4.8-3.86,2.02-2.29,1.11-4.6-1.95-4.83-2.34-.17-4.84-.06-7.07.61-14.8,4.42-29.55,9-44.3,13.61-.67.21-1.54,1.16-1.58,1.82-.31,4.89-3.11,7.68-7.43,9.26-5.56,2.04-11.37,1.92-17.03,1.12-8.11-1.15-16.12-2.95-24.17-4.48-.47-.09-.93-.22-1.38-.39-2.05-.75-3.08-2.41-2.64-4.22.48-2,2.14-3.11,4.39-2.65,3.9.8,7.72,2.07,11.65,2.6,7.01.96,14.06,1.61,21.12,2.18,1.77.14,3.65-.38,5.39-.88,2.93-.85,3.91-2.96,2.17-5.48-1.14-1.66-2.99-3.37-4.85-3.92-6.01-1.78-12.12-3.38-18.3-4.39-6.7-1.09-13.05-2.64-18.68-6.68-15.45-11.1-32.25-10.97-49.55-5.58-4.01,1.25-7.88,2.99-11.77,4.63-2.6,1.1-4.53.79-5.57-1.17-1.11-2.09-.25-3.94,2.45-5.3,6.8-3.41,13.94-5.87,21.41-7.3,1.45-.28,2.16-.83,2.45-2.31.68-3.43,1.67-6.81,2.27-10.26.16-.94-.28-2.37-.97-3.02-3.41-3.24-7.01-6.27-10.52-9.41-4.34-3.88-4.46-8.91-.29-12.89,3.4-3.25,6.81-6.49,10.29-9.66,1.09-.99,1.38-1.86.85-3.31-1.6-4.42-3.03-8.9-4.51-13.35-1.82-5.45.58-9.89,6.18-11.3,4.56-1.15,9.13-2.22,13.71-3.26,1.38-.31,2.16-.86,2.44-2.43.79-4.55,1.78-9.07,2.72-13.59,1.26-6.07,5.55-8.63,11.53-6.86,4.28,1.26,8.58,2.45,12.8,3.88,1.75.59,2.79.17,3.9-1.15,2.88-3.41,5.87-6.74,8.83-10.08,4.12-4.63,9.13-4.66,13.41-.11,3.06,3.25,6.17,6.46,9.16,9.78,1.1,1.23,2.07,1.59,3.71.98,4.33-1.6,8.73-3.01,13.12-4.45,5.6-1.84,10,.62,11.4,6.38,1.09,4.49,2.14,8.99,3.16,13.49.31,1.37.83,2.16,2.42,2.43,4.47.76,8.9,1.77,13.35,2.68,6.33,1.28,8.91,5.61,7.05,11.83-1.25,4.2-2.42,8.42-3.82,12.57-.59,1.75-.17,2.77,1.16,3.89,3.36,2.82,6.62,5.76,9.89,8.67,4.8,4.27,4.9,9.22.27,13.59-3.25,3.07-6.46,6.18-9.78,9.15-1.24,1.11-1.56,2.1-.97,3.71,1.59,4.33,3.02,8.73,4.46,13.12,1.89,5.78-.86,10.31-6.86,11.49-4.06.8-8.14,1.55-12.14,2.61-1.41.37-2.58,1.62-3.86,2.47.15.26.3.51.45.77ZM102.04,192.78c.91,0,1.53-.04,2.15,0,4.92.37,9.88.44,14.73,1.21,7.78,1.23,14.54,5.06,21,9.39,3.48,2.34,7.17,4.02,11.42,4.56,4.82.62,9.62,1.45,14.36,2.5,6,1.33,11.95,2.9,16.47,7.59.4.42,1.62.34,2.35.12,5.26-1.57,10.48-3.29,15.75-4.84,1.31-.38,1.68-.94,1.74-2.3.22-5.31,3.7-9.52,8.88-10.78,4.18-1.01,8.38-1.96,12.61-2.72,1.9-.34,2.18-1.1,1.6-2.76-1.5-4.28-2.82-8.63-4.4-12.88-1.56-4.2-.64-7.59,2.63-10.56,3.31-3,6.45-6.18,9.79-9.15,1.57-1.39,1.43-2.29-.1-3.57-3.48-2.93-6.81-6.02-10.26-8.99-3.12-2.68-4.13-5.89-2.89-9.85,1.37-4.41,2.55-8.88,4.01-13.26.67-2.01.13-2.69-1.84-3.03-4.39-.77-8.74-1.77-13.13-2.57-4.23-.77-6.82-3.06-7.73-7.35-.96-4.52-2.24-8.97-3.18-13.49-.39-1.87-1.15-2.17-2.8-1.59-4.51,1.58-9.05,3.09-13.57,4.62-3.62,1.23-6.73.45-9.36-2.34-3.22-3.43-6.52-6.79-9.67-10.29-1.39-1.54-2.29-1.44-3.59.11-2.92,3.49-6.03,6.81-8.98,10.27-2.62,3.08-5.79,4.05-9.64,2.91-4.5-1.34-9.05-2.55-13.5-4.05-2.07-.7-2.69-.06-3.03,1.85-.8,4.47-1.75,8.91-2.61,13.37-.77,4.01-3,6.54-7.07,7.45-4.59,1.03-9.13,2.25-13.72,3.23-1.81.38-2.21,1.08-1.6,2.79,1.55,4.35,2.91,8.77,4.48,13.11,1.44,3.99.63,7.3-2.49,10.17-3.41,3.12-6.7,6.38-10.12,9.49-1.33,1.21-1.36,2.06.04,3.24,3.59,3.04,7.06,6.22,10.62,9.3,2.89,2.5,3.8,5.54,2.88,9.24-.8,3.21-1.47,6.46-2.23,9.86Z"/>
      <path class="cls-1" d="M156.99,70.38c0-1.75-.08-3.5.02-5.24.13-2.15,1.52-3.53,3.4-3.59,1.96-.06,3.62,1.38,3.69,3.58.12,3.57.11,7.15-.03,10.73-.08,2.01-1.37,3.18-3.39,3.34-1.87.14-3.48-1.27-3.64-3.33-.15-1.82-.03-3.65-.03-5.48,0,0-.02,0-.03,0Z"/>
      <path class="cls-1" d="M77.61,110.41c1.31.55,2.07.78,2.75,1.16,2.71,1.52,5.41,3.05,8.08,4.64,2.28,1.35,2.92,3.28,1.84,5.19-1.09,1.93-3.11,2.37-5.37,1.09-2.91-1.65-5.82-3.31-8.66-5.08-1.49-.93-2.31-2.47-1.46-4.09.62-1.18,1.91-2,2.83-2.91Z"/>
      <path class="cls-1" d="M234.75,120.94c-.75-.68-2.26-1.44-2.59-2.54-.33-1.11.09-3.19.93-3.77,3.25-2.27,6.73-4.25,10.27-6.06,1.55-.79,3.16-.06,4.14,1.47.99,1.54.94,3.36-.51,4.31-3.44,2.27-7.11,4.22-10.69,6.27-.26.15-.61.14-1.54.33Z"/>
      <path class="cls-1" d="M121.65,88.35c-.51.66-1.12,2.16-2.13,2.52-1.13.4-3.33.23-3.85-.53-2.37-3.45-4.49-7.11-6.26-10.89-.4-.86.63-3.1,1.6-3.68.97-.57,3.45-.36,3.98.41,2.39,3.43,4.34,7.18,6.42,10.82.11.19.09.46.24,1.35Z"/>
      <path class="cls-1" d="M79.3,189.44c-.87-.89-2.3-1.76-2.84-3.01-.74-1.7.05-3.52,1.86-4.1,3.71-1.19,7.49-2.2,11.3-3.01,1.88-.4,3.2.86,3.67,2.69.46,1.76-.18,3.39-1.85,3.95-3.77,1.26-7.64,2.22-12.14,3.49Z"/>
      <path class="cls-1" d="M252.66,163.4c-1.59,0-3.19.06-4.77-.01-2.33-.11-3.93-1.64-3.94-3.65-.01-2.03,1.58-3.47,3.99-3.51,3.26-.05,6.52-.05,9.79,0,2.35.03,3.79,1.32,3.88,3.32.1,2.12-1.35,3.69-3.69,3.83-1.74.1-3.5.02-5.25.02Z"/>
      <path class="cls-1" d="M71.31,159.09c1.75,0,3.5-.08,5.24.02,2.08.12,3.55,1.62,3.45,3.52-.1,2.01-1.25,3.42-3.23,3.51-3.73.18-7.47.17-11.2,0-2.08-.09-3.34-1.78-3.16-3.76.19-2.03,1.36-3.19,3.41-3.28,1.82-.08,3.66-.02,5.48-.02Z"/>
      <path class="cls-1" d="M204.13,89.89c-3.19-.01-5.02-2.49-3.86-4.79,1.7-3.41,3.66-6.7,5.7-9.91,1.09-1.72,2.89-1.94,4.63-.93,1.79,1.04,2.29,2.78,1.38,4.53-1.72,3.31-3.62,6.54-5.64,9.68-.52.81-1.75,1.16-2.2,1.44Z"/>
      <path class="cls-1" d="M112.12,109.87c-.61.82-1.15,2.16-2.1,2.63-.97.48-2.79.6-3.49,0-2.82-2.43-5.45-5.09-7.92-7.87-1.18-1.33-.8-3.05.46-4.32,1.26-1.27,2.99-1.67,4.31-.5,2.79,2.46,5.35,5.18,7.94,7.86.39.41.44,1.15.81,2.21Z"/>
      <path class="cls-1" d="M144.86,88.76c0,2.58-.93,3.88-2.8,4.28-1.85.39-3.43-.28-4.02-2.13-1.03-3.25-1.96-6.55-2.68-9.89-.39-1.83.62-3.25,2.43-3.87,1.86-.64,3.56-.03,4.18,1.71,1.22,3.43,2.06,7,2.88,9.9Z"/>
      <path class="cls-1" d="M241.92,134.55c2.54,0,3.83.94,4.24,2.8.39,1.75-.28,3.35-1.97,3.9-3.39,1.1-6.85,2.03-10.34,2.74-1.86.38-3.23-.82-3.72-2.63-.47-1.75.22-3.4,1.84-3.96,3.44-1.19,7-2.03,9.95-2.85Z"/>
      <path class="cls-1" d="M88.73,146.79c-2.84-.8-6.4-1.66-9.83-2.85-1.65-.57-2.25-2.19-1.77-3.96.51-1.87,1.92-3.02,3.71-2.66,3.49.69,6.96,1.66,10.33,2.8,1.8.61,2.33,2.36,1.85,4.17-.46,1.76-1.76,2.56-4.29,2.5Z"/>
      <path class="cls-1" d="M233.63,175.11c4.31,1.24,8.03,2.13,11.59,3.43,1.59.58,2.13,2.31,1.56,4.06-.56,1.75-1.9,2.76-3.63,2.4-3.49-.74-6.95-1.66-10.34-2.76-1.71-.55-2.52-2.25-1.87-3.88.51-1.28,1.81-2.25,2.68-3.26Z"/>
      <path class="cls-1" d="M180.76,92.47c-3.13-.06-4.83-2-4.34-4.26.68-3.18,1.54-6.33,2.5-9.44.65-2.1,2.6-3.02,4.55-2.4,1.73.55,2.81,2.44,2.33,4.42-.71,2.93-1.34,5.92-2.43,8.72-.52,1.34-1.99,2.3-2.61,2.98Z"/>
      <path class="cls-1" d="M220.89,97.07c.81.69,2.13,1.27,2.43,2.18.37,1.12.37,2.92-.31,3.73-2.19,2.62-4.66,5.02-7.21,7.3-1.4,1.26-3.16,1.09-4.56-.22-1.42-1.32-1.7-3.14-.49-4.53,2.35-2.69,4.98-5.14,7.59-7.59.51-.48,1.45-.52,2.55-.88Z"/>
      <path class="cls-1" d="M136.13,187.65c.98-5.72,1.81-11.89,3.14-17.95.76-3.45.35-5.85-2.51-8.28-4.43-3.76-8.4-8.05-12.59-12.1-1.25-1.21-2.36-2.49-1.78-4.38.6-1.95,2.19-2.54,4.05-2.8,6.16-.85,12.29-1.89,18.46-2.57,2.59-.28,4.04-1.24,5.13-3.65,2.58-5.73,5.5-11.32,8.27-16.96.77-1.57,1.73-2.91,3.71-2.9,1.98.01,2.91,1.35,3.69,2.93,2.94,6.01,5.97,11.98,8.84,18.02.7,1.46,1.57,2.1,3.16,2.31,6.71.89,13.4,1.95,20.11,2.88,1.83.25,3.55.95,3.67,2.79.09,1.36-.63,3.13-1.6,4.12-4.72,4.86-9.62,9.55-14.52,14.23-1.03.98-1.4,1.84-1.12,3.31,1.25,6.65,2.33,13.34,3.48,20.01.29,1.71.36,3.39-1.23,4.56-1.67,1.24-3.29.64-4.92-.22-5.91-3.14-11.86-6.19-17.74-9.39-1.36-.74-2.38-.69-3.71.03-6.02,3.26-12.09,6.44-18.18,9.57-3.21,1.65-5.86.15-5.81-3.58ZM144.45,181.8c5.29-2.78,10.09-5.25,14.84-7.84,1.87-1.02,3.54-1.07,5.39,0,2.56,1.46,5.2,2.76,7.81,4.12,2.2,1.15,4.4,2.29,7.02,3.65-1-5.95-1.83-11.38-2.85-16.76-.37-1.97.18-3.37,1.55-4.69,3.57-3.42,7.09-6.88,10.62-10.34.42-.41.75-.9,1.32-1.6-5.29-.75-10.22-1.58-15.19-2.11-2.9-.31-4.93-1.35-5.99-4.22-.74-2.01-1.84-3.88-2.8-5.8-1.33-2.66-2.67-5.31-4.21-8.37-1.93,3.89-3.61,7.3-5.32,10.7-4.22,8.4-2.23,6.7-11.42,8.16-3.71.59-7.42,1.12-10.82,1.64,3.78,3.99,7.45,7.96,11.23,11.83,1.4,1.43,2.04,2.83,1.64,4.89-1.03,5.38-1.85,10.81-2.85,16.74Z"/>
    </g>
  </g>
</svg>