<?xml version="1.0" encoding="utf-8"?>
<!-- Generator: Adobe Illustrator 28.1.0, SVG Export Plug-In . SVG Version: 6.00 Build 0)  -->
<svg version="1.1" id="Layer_2_00000075154507192231994340000004542127101911412358_"
	 xmlns="http://www.w3.org/2000/svg" xmlns:xlink="http://www.w3.org/1999/xlink" x="0px" y="0px" viewBox="0 0 1647.8 344.6"
	 style="enable-background:new 0 0 1647.8 344.6;" xml:space="preserve">
<style type="text/css">
	.st0{fill-rule:evenodd;clip-rule:evenodd;fill:#AA8724;}
	.st1{fill-rule:evenodd;clip-rule:evenodd;fill:#475862;}
	.st2{fill:#475862;}
</style>
<g id="Layer_1-2">
	<g>
		<polygon class="st0" points="617.5,49.3 690.4,49.3 690.4,85.5 617.5,158.5 		"/>
		<polygon class="st0" points="464,155.9 464,49.3 536.9,49.3 536.9,83 		"/>
		<path class="st1" d="M690.4,107.4v89.5c0,14.6-2.2,28.4-6.5,41.4c-4.3,13-11.2,24.4-20.5,34.1c-9.3,9.8-19,16.6-29.2,20.5
			c-14.2,5.5-31.2,8.2-51.1,8.2c-11.5,0-24-0.9-37.6-2.5c-13.6-1.7-25-5-34.1-10c-9.1-5-17.5-12.1-25-21.3
			c-7.6-9.2-12.8-18.7-15.6-28.5c-4.5-15.7-6.8-29.7-6.8-41.9v-19.1l72.9-72.9v95.6c0,13.5,3.6,24.1,10.7,31.6
			c7.2,7.6,17.1,11.4,29.7,11.4s22.3-3.7,29.5-11.2c7.1-7.4,10.7-18,10.7-31.8v-20.1L690.4,107.4L690.4,107.4z"/>
		<polygon class="st1" points="941.5,105.2 941.5,298.7 868.3,298.7 868.3,178.4 		"/>
		<polygon class="st0" points="868.3,51 941.5,51 941.5,83.3 868.3,156.5 		"/>
		<path class="st2" d="M1285.3,242.7V107.4h19.2c16.4,0,28.1,1.8,35.1,5.3c6.9,3.6,12.3,9.8,16.3,18.6c4,8.9,5.9,23.2,5.9,43
			c0,26.2-4.4,44.2-13.2,53.9c-8.8,9.7-23.4,14.5-43.8,14.5H1285.3L1285.3,242.7z M1207,298.7h116.5c22.9,0,41.5-3.1,55.6-9.1
			c14.1-6.1,25.8-14.8,35.1-26.2c9.2-11.4,15.9-24.6,20-39.7c4.2-15.1,6.3-31.1,6.3-48c0-26.5-3.1-47-9.3-61.6
			c-6.1-14.6-14.7-26.8-25.7-36.7s-22.7-16.4-35.3-19.7c-17.2-4.5-32.8-6.7-46.7-6.7h-116.5L1207,298.7L1207,298.7z"/>
		<path class="st1" d="M464.3,48.5h-73.5c-6.7,16.9-41.9,77.7-56,93.6l-53.3-93.3l-73.3-1l-0.8,248.7l67,1l-0.9-137.6
			c11.8,6.9,45.7,74.1,64.2,89.8c9.5-17.7,47.1-78.3,59.8-91l-0.8,137.4l68.1,0.8C464.4,214,464.4,132.9,464.3,48.5"/>
		<polygon class="st2" points="935.9,298.7 1017.8,298.7 1074.5,139 1131.3,298.7 1210.8,298.7 1102.1,47.7 1041.6,48.1 		"/>
		<path class="st1" d="M851.7,58.3v71.6c0,1.2-83.9-53.8-95.3-17c-11.2,36.1,105.7,24.8,126.5,79.6c20.8,54.8-12.2-11.8-12.2-11.8
			l-44.4,45.6c-27.4-41-126.4-7.8-143.4-98.9c-2.3-10.1-1.7-9.1,0.5,2.4c0,0,1.4-52.9,53.6-77C789.2,28.8,851.7,58.3,851.7,58.3"/>
		<path class="st1" d="M715.4,215.6c0,0,35.7,37,88.9,27.4l-55.7,55.7c-17.4-4.3-42.7-14.5-70.6-39.1L715.4,215.6L715.4,215.6z"/>
	</g>
</g>
</svg>
