<?xml version="1.0" encoding="UTF-8"?>
<svg id="Layer_2" data-name="Layer 2" xmlns="http://www.w3.org/2000/svg" viewBox="0 0 317.53 200.6">
  <defs>
    <style>
      .cls-1, .cls-2, .cls-3, .cls-4 {
        stroke-width: 0px;
      }

      .cls-2 {
        fill: none;
      }

      .cls-3 {
        fill: #fff;
      }

      .cls-4 {
        fill: #ee3436;
      }
    </style>
  </defs>
  <g id="Layer_1-2" data-name="Layer 1">
    <g>
      <path class="cls-1" d="M313.43,162.92c-.39,0-.88.1-3.02,1.22-1.19.62-2.29.93-3.27.93-1.32,0-2.46-.41-3.48-1.25-.75-.63-1.2-1.25-1.35-1.9h11.27c1.72,0,2.63-.75,3.09-1.38.58-.8.87-1.97.87-3.58,0-3.44-1.3-6.32-3.87-8.6-2.52-2.23-5.75-3.36-9.6-3.36-2.48,0-4.83.56-7.01,1.68-2.17,1.11-3.98,2.69-5.39,4.69-.91,1.24-1.61,2.62-2.08,4.09-.46,1.44-.7,2.96-.7,4.49,0,.58.03,1.16.08,1.72-.3-.87-.74-1.68-1.32-2.41-.71-.89-1.67-1.73-2.92-2.58.07,0,.13,0,.2,0,1.17,0,2.14-.37,2.9-1.12v-.02c.76-.76,1.13-1.73,1.13-2.91,0-1.72-.63-3.42-1.86-5.05-1.3-1.73-2.68-2.6-4.08-2.6-.44,0-.96.14-1.76.49h-.02c-.62.29-.87.3-.92.3-.03,0-.34,0-1.59-.3-1.06-.23-1.95-.35-2.7-.35-3.03,0-5.68.96-7.86,2.84-2.24,1.93-3.37,4.28-3.37,7,0,2.02.63,3.9,1.88,5.58.32.44.69.87,1.09,1.27h-.22c-1.38,0-2.16.68-2.57,1.25-.5.7-.74,1.66-.74,2.91v.1c-.22-.22-.49-.43-.8-.64-.02-.02-.04-.03-.06-.04-.04-.04-.09-.07-.14-.1l-.04-.03c-.33-.2-.5-.69-.5-1.44,0-1.44.06-3.78.17-7.15.11-3.41.16-5.91.16-7.63,0-2.1-.2-2.79-.52-3.23l-.02-.03c-.66-.84-1.87-.84-2.27-.84-1.18,0-2.76.22-4.68.65-1.92.43-3.79.98-5.53,1.67-1.38.52-2.34,1.06-2.92,1.63l-.02.02c-.67.68-1.02,1.55-1.02,2.51,0,.88.34,2.14,1.95,3.15l.04.03c.07.04.12.07.16.1l.04.03c.38.25.49.43.51.48v.02s.13.32.13,1.43v3.22c0,2.88-.36,3.98-.58,4.37-.17.32-.51.7-1.56.7-.71,0-.95-.27-1.11-.56-.18-.33-.49-1.24-.49-3.58,0-2.64.1-5.46.28-8.35.24-3.76.29-4.49.29-4.67,0-.98-.23-1.67-.69-2.14-.46-.46-1.17-.69-2.17-.69-1.22,0-2.78.21-4.78.64-1.93.41-3.84.97-5.66,1.69-1.45.55-2.39,1.07-2.98,1.64-.7.67-1.06,1.54-1.06,2.51,0,.87.34,2.11,1.95,3.12h.01c.12.09.22.15.29.19l.03.03c.36.22.46.39.48.44v.02s.14.32.14,1.42v6.75c0,3.54.79,6.23,2.36,7.99,1.61,1.82,4.05,2.74,7.27,2.74,1.37,0,2.64-.19,3.76-.58,1.13-.38,2.28-1.02,3.51-1.95l.02-.02s.07-.06.11-.1c.07-.05.15-.12.26-.2l.04-.04c.09-.08.17-.14.23-.18,0,.05,0,.11.01.18l.03.33c.02.24.04.44.05.57v.07c.11.7.38,1.21.83,1.52.4.28.95.38,2.02.38,3.67,0,6.76-.48,9.2-1.41,2.17-.82,3.52-1.87,4.04-3.13.28.61.63,1.2,1.04,1.78,1.34,1.85,2.68,2.76,4.09,2.76.41,0,.9-.11,1.58-.36.37-.14.57-.18.66-.2.17.04.59.13,1.65.39,1.27.31,2.54.47,3.78.47,3.36,0,6.15-.9,8.29-2.67,2.2-1.84,3.31-4.23,3.31-7.1,0-.17,0-.32,0-.48.66,2.35,1.89,4.43,3.7,6.2,2.81,2.78,6.41,4.19,10.68,4.19,1.69,0,3.33-.24,4.88-.7,1.54-.46,3.01-1.15,4.38-2.05,1.11-.74,1.95-1.51,2.57-2.36.7-.94,1.05-1.89,1.05-2.8,0-1.02-.29-1.89-.86-2.58-.62-.77-1.45-1.17-2.4-1.17ZM274.81,166.39c-.28,0-.66-.14-1.09-.42-.39-.25-.8-.58-1.25-1,.21.1.46.21.76.33,1.06.48,1.48.87,1.63,1.09h-.04ZM280.51,154.41c-1.48-.7-1.99-1.16-2.16-1.35.05-.04.1-.06.2-.06.15,0,.75.1,1.86,1.25v.02c.08.06.15.13.21.19-.04-.02-.07-.03-.11-.05ZM302.1,154.46c0-.65.2-1.17.62-1.62.39-.43.82-.63,1.34-.63.48,0,.84.15,1.15.49.32.35.47.82.47,1.42,0,.17,0,.3-.02.39-.27.04-.8.09-1.84.09h-1.15c-.26,0-.45,0-.58-.02v-.12Z"/>
      <path class="cls-1" d="M225.16,148.86c-2.78-2.56-6.42-3.85-10.83-3.85-2.15,0-4.24.35-6.22,1.04-1.98.7-3.78,1.7-5.33,3.01-1.76,1.44-3.1,3.12-3.99,4.99-.89,1.87-1.34,3.94-1.34,6.15,0,1.93.42,3.81,1.24,5.61.81,1.78,2,3.41,3.52,4.84,1.37,1.3,2.95,2.28,4.71,2.93,1.74.64,3.67.97,5.71.97,2.35,0,4.56-.39,6.56-1.16,2.01-.77,3.86-1.91,5.49-3.44h.01c1.49-1.44,2.65-3.11,3.46-4.98.8-1.86,1.21-3.86,1.21-5.95,0-4.16-1.42-7.58-4.21-10.16ZM215.1,165.57c-.19.29-.36.34-.58.34-.08,0-.31,0-.66-.43v-.02c-.39-.44-.76-1.19-1.09-2.2v-.03c-.37-1.06-.67-2.23-.91-3.45-.21-1.2-.32-2.29-.32-3.24,0-1.41.21-2.11.38-2.44.17-.33.32-.36.5-.36.39,0,1.1.68,1.84,2.57.81,2.07,1.22,4.59,1.22,7.51,0,.76-.13,1.35-.38,1.73Z"/>
      <path class="cls-1" d="M140.66,165.78h0c-.42-.5-1-.84-1.71-1.02-.23-.06-.34-.13-.36-.17v-.02c-.04-.09-.2-.66-.2-3.25v-.74c0-.49.03-1.38.08-2.59.05-1.28.07-2.31.07-3.07,0-3.25-1.18-5.77-3.51-7.49-2.25-1.66-5.38-2.47-9.58-2.47-3.71,0-6.84.67-9.31,1.98-2.73,1.44-4.12,3.31-4.12,5.58,0,1.24.41,2.3,1.21,3.11.8.83,1.85,1.27,3.03,1.27.09,0,.18,0,.26,0-1.03.42-2,.96-2.87,1.64-1.53,1.17-2.57,2.56-3.11,4.11,0,0-.02-.02-.03-.03h-.01c-.76-.86-1.76-1.3-2.97-1.3s-2.21.76-3,2.26v.02c-.22.41-.37.64-.43.75-.32.44-.64.75-.95.91-.31.17-.73.25-1.25.25-.03,0-.07,0-.1,0,0-.03.02-.05.03-.08.09-.23.27-.64.66-1.33l5.72-10.15h0c.6-1.1,1.07-2.06,1.39-2.86.37-.91.55-1.6.55-2.17,0-1.12-.5-2.05-1.39-2.61-.75-.47-1.79-.7-3.18-.7h-.69c-1.63.03-3.34.05-5.22.05h-5.32c-1.97,0-3.67-.18-5.03-.53-.3-.09-.47-.11-.64-.11h0c-.87,0-1.67.28-2.36.81-.63.48-1.2,1.2-1.77,2.19-.55.97-.96,1.94-1.24,2.95-.3,1.04-.46,2.04-.46,2.95,0,1.1.37,2.05,1.07,2.85.73.83,1.67,1.26,2.71,1.26s2.49-.41,3.43-2.35l.13-.25c.53-1.11.87-1.38.98-1.44.16-.1.54-.26,1.39-.26h.09c-.23.44-.65,1.22-1.49,2.57-.16.26-.3.49-.42.69-.11.18-.21.35-.3.49l-5.21,8.37c-.61.93-1.03,1.71-1.3,2.4-.3.77-.44,1.46-.44,2.11,0,1.52.69,2.35,1.26,2.78h0c.75.55,1.78.82,3.16.82.47,0,1.13-.02,1.9-.05.77-.04,1.35-.04,1.71-.04h6.6c2.78,0,5.01.19,6.63.57.25.08.42.11.6.11,1.61,0,3.09-.98,4.41-2.91.5-.74.91-1.51,1.2-2.31.46.93,1.09,1.77,1.9,2.5,1.79,1.6,4.18,2.41,7.09,2.41,1.23,0,2.33-.15,3.28-.44.94-.31,1.94-.83,2.96-1.56.13-.09.27-.19.45-.33.02-.02.05-.04.07-.05.08.08.19.19.32.34l.03.03c.32.34.61.63.84.86l.03.03c.5.47,1.09.82,1.74,1.03.61.22,1.35.32,2.25.32h0c2.4,0,4.56-.68,6.42-2.02,1.98-1.43,2.99-3.03,2.99-4.78,0-.71-.23-1.34-.66-1.87ZM124.42,165.88c-.03.07-.06.12-.33.12s-.37-.09-.46-.21c-.1-.16-.28-.55-.28-1.45,0-.7.14-1.24.38-1.55.13-.17.36-.37.9-.37h.05v.05c0,2.71-.22,3.31-.26,3.4ZM124.8,156.13c-.3-.04-.6-.08-.9-.11-.67-.08-1.3-.12-1.86-.12-1.07,0-2.09.1-3.05.28.03,0,.05-.03.08-.04.81-.48,1.64-1.23,2.46-2.23.1-.12.25-.3.44-.55,1.2-1.51,1.82-1.58,1.94-1.58.26,0,.4.05.55.36.17.37.38,1.18.38,2.98,0,.23,0,.57-.03,1.02Z"/>
      <path class="cls-1" d="M54.01,166.29c-.07-.06-.13-.11-.18-.16-.06-.06-.12-.1-.17-.15-.38-.34-.46-.52-.48-.57-.02-.05-.1-.3-.1-.99v-16.59c0-.77-.09-1.71-.73-2.3h0c-.46-.4-1.12-.59-2.1-.59-.48,0-1,.04-1.58.1.3-.13.58-.28.86-.44,2.11-1.19,3.18-2.73,3.18-4.59,0-1.52-.71-2.76-2.07-3.58-1.18-.71-2.75-1.05-4.82-1.05-2.62,0-4.88.51-6.71,1.52-2.05,1.15-3.1,2.61-3.1,4.37,0,1.61.64,2.91,1.86,3.76,1.1.78,2.66,1.17,4.64,1.17.12,0,.24,0,.36,0-1.09.31-2.17.67-3.22,1.07-1.44.55-2.38,1.06-2.98,1.63-.04.04-.09.08-.13.12.02-.33.03-.66.03-1,0-4.11-1.35-7.25-4.01-9.32-2.56-2.01-6.42-3.03-11.47-3.03-1.49,0-3.46.09-6.04.26-2.98.22-4.44.26-5.14.26-.22,0-.72-.02-1.46-.06-.81-.05-1.52-.08-2.08-.08-2,0-3.46.25-4.48.78-1.22.63-1.89,1.75-1.89,3.12,0,1.05.47,2.49,2.69,3.38h.01c.39.16.6.25.7.3h.01c.35.17.58.41.72.74.1.27.28.96.28,2.6,0,7.16-.06,11.85-.17,14.36-.13,2.69-.32,3.57-.41,3.83-.13.1-.46.33-1.23.77-1.7.99-2.05,2.31-2.05,3.23,0,1.31.56,3.08,3.21,4.09,1.77.68,4.44,1.01,8.17,1.01,3.5,0,6.01-.32,7.7-.97,2.5-.99,3.03-2.71,3.03-3.98,0-.97-.4-2.34-2.3-3.34h-.01c-.39-.2-.58-.32-.68-.4-.07-.07-.21-.3-.31-.79v-.03c-.14-.6-.2-1.57-.2-2.87,0-.14,0-.37.02-.64.11,0,.22.02.33.02.48.03.97.04,1.56.04,4.82,0,8.64-1.17,11.34-3.46,1.62-1.38,2.77-3.07,3.45-5.08.28.62.81,1.27,1.76,1.83l.1.06c.07.04.11.06.15.09.31.2.5.44.61.75.07.22.23.91.23,2.85v1.07c0,2.04-.03,3.52-.07,4.42-.06,1.08-.15,1.48-.2,1.63v.04s-.12.15-.35.34h-.03l-.32.24c-1.3.97-1.96,2.09-1.96,3.31s.54,2.8,3.11,3.85c1.73.7,4.07,1.05,7.14,1.05s5.3-.33,6.89-1c2.38-1.02,2.88-2.63,2.88-3.81s-.6-2.2-1.77-3.17ZM20.79,151.83c-.48.58-1.09.89-1.91.94-.03-.3-.07-.85-.07-1.86v-3.62c0-2.1.12-2.81.17-3.04.8.02,1.37.33,1.83.99.56.79.84,1.98.84,3.51,0,1.35-.29,2.38-.86,3.07Z"/>
      <path class="cls-3" d="M272.44,171.14c.18,0,.27,0,2.19.47,1.09.27,2.16.41,3.2.41,2.82,0,5.02-.7,6.74-2.11,1.64-1.38,2.44-3.09,2.44-5.24,0-1.53-.42-2.81-1.28-3.9-.92-1.15-2.56-2.33-4.9-3.51-.28-.14-.73-.36-1.34-.64h-.01c-2.49-1.18-3.6-2.27-3.6-3.51,0-.71.29-1.35.84-1.83.51-.45,1.14-.69,1.83-.69,1.13,0,2.31.64,3.6,1.98.39.4.68.68.88.87.36.31.69.54,1,.68.27.1.56.17.87.17.68,0,1-.23,1.19-.42.18-.18.42-.51.42-1.21,0-1.2-.45-2.37-1.37-3.58-.79-1.04-1.54-1.63-2.12-1.64-.05,0-.26.05-.8.29-.75.34-1.38.5-1.91.5-.26,0-.73-.04-2.11-.36-.87-.18-1.6-.29-2.18-.29-2.47,0-4.52.74-6.27,2.24-1.7,1.47-2.53,3.16-2.53,5.16,0,1.5.46,2.86,1.4,4.14.96,1.31,2.41,2.46,4.32,3.41.23.11.65.31,1.24.57h.02c.77.35,3.13,1.4,3.13,3.45,0,.64-.29,1.24-.81,1.67-.47.41-1.06.62-1.71.62-.76,0-1.57-.27-2.4-.8-.72-.47-1.51-1.14-2.33-2-.09-.1-.21-.22-.36-.39-1.16-1.21-1.86-1.39-2.18-1.39-.42,0-.53.16-.59.24-.11.16-.3.57-.3,1.51,0,1.37.47,2.7,1.39,3.98.8,1.11,1.57,1.75,2.12,1.75,0,0,.19,0,.75-.21.67-.25,1.15-.36,1.54-.36"/>
      <path class="cls-3" d="M251.33,171.69c.12,0,.27,0,.46,0,3.37,0,6.18-.42,8.34-1.24,1.72-.65,2.71-1.41,2.71-2.08,0-.36-.42-.7-.78-.93l-.15-.1-.06-.06c-.74-.48-1.58-1.47-1.58-3.46,0-1.46.06-3.83.18-7.23.11-3.38.16-5.86.16-7.55,0-.9-.04-1.39-.07-1.66-.08,0-.18,0-.3,0-1,0-2.4.2-4.15.59-1.8.4-3.54.92-5.19,1.57-1.36.52-1.88.9-2.08,1.09-.22.24-.32.48-.32.81,0,.16,0,.57.8,1.09.12.07.21.12.26.16h.02c.66.44,1.12.92,1.37,1.46.27.53.38,1.29.38,2.51v3.22c0,2.64-.28,4.45-.87,5.53-.49.89-1.53,1.96-3.69,1.96-1.85,0-2.78-.99-3.23-1.82-.54-.98-.79-2.49-.79-4.74,0-2.7.1-5.56.29-8.51.1-1.6.27-4.27.28-4.52,0-.16-.01-.29-.03-.37-.09-.02-.22-.03-.41-.03-1.04,0-2.47.19-4.27.58-1.8.38-3.58.9-5.3,1.57-1.44.55-1.98.94-2.17,1.12-.23.22-.32.45-.32.77,0,.15,0,.56.81,1.07.14.09.26.16.36.23.65.41,1.11.91,1.37,1.47.25.54.37,1.3.37,2.45v6.75c0,2.92.59,5.07,1.75,6.38,1.13,1.28,2.96,1.92,5.45,1.92,1.12,0,2.1-.15,2.98-.45.87-.29,1.81-.82,2.8-1.57.02-.02.04-.03.07-.06.08-.06.18-.14.3-.23.81-.68,1.48-.99,2.1-.99s1.99.27,2.11,2.73l.02.25c0,.11.02.23.03.32"/>
      <path class="cls-1" d="M82.88,162.61h-.01c-.76-.86-1.76-1.3-2.97-1.3s-2.21.77-3,2.26v.02c-.21.41-.36.64-.42.75-.33.44-.64.75-.95.91-.3.17-.73.25-1.25.25-.04,0-.07,0-.1,0,0-.03.02-.05.03-.08.09-.22.27-.64.66-1.33l5.72-10.15h0c.59-1.1,1.06-2.05,1.39-2.87.37-.91.55-1.59.55-2.16,0-1.12-.5-2.04-1.39-2.62-.75-.46-1.79-.7-3.18-.7h-.69c-1.65.03-3.36.05-5.22.05h-5.33c-1.98,0-3.67-.18-5.03-.53-.3-.08-.47-.11-.64-.11-.88,0-1.68.28-2.37.81-.62.48-1.2,1.19-1.77,2.19-.55.97-.96,1.94-1.25,2.95-.3,1.04-.46,2.04-.46,2.95,0,1.09.36,2.05,1.07,2.85.73.83,1.67,1.26,2.71,1.26s2.49-.41,3.43-2.35l.04-.08c.03-.07.06-.13.08-.17.53-1.11.88-1.38.97-1.43h0c.16-.1.54-.27,1.38-.27h.1c-.23.44-.65,1.22-1.49,2.57-.16.27-.3.5-.44.71-.1.18-.2.33-.28.46l-5.22,8.38c-.6.94-1.03,1.72-1.3,2.41-.3.76-.44,1.45-.44,2.11,0,1.52.69,2.36,1.27,2.79.75.54,1.78.81,3.16.81.48,0,1.13-.02,1.9-.05.78-.04,1.36-.04,1.71-.04h6.6c2.78,0,5.01.19,6.62.57.28.09.43.11.6.11,1.61,0,3.1-.98,4.41-2.91,1.21-1.78,1.83-3.74,1.83-5.84,0-1.28-.36-2.35-1.07-3.18Z"/>
      <path class="cls-3" d="M63.87,171.42h6.6c3.03,0,5.39.21,7.22.65l.07.02s.04,0,.04.02c.9-.08,1.74-1.04,2.3-1.85.95-1.39,1.41-2.85,1.41-4.47,0-.69-.16-1.21-.48-1.58-.29-.32-.64-.46-1.15-.46-.13,0-.45.2-.85.97-.2.39-.4.73-.56.98l-.03.03c-.56.78-1.14,1.33-1.79,1.67-.67.36-1.45.53-2.39.53-.7,0-1.25-.12-1.68-.38h-.01c-.6-.37-.92-.98-.92-1.71,0-.39.1-.82.29-1.31.16-.42.43-.97.79-1.62h0s5.72-10.16,5.72-10.16c.55-1,.97-1.88,1.27-2.6.34-.83.37-1.17.37-1.24,0-.37-.12-.48-.25-.56-.19-.12-.7-.33-1.89-.33h-.66c-1.66.04-3.38.05-5.25.05h-5.33c-2.19,0-4.09-.21-5.65-.61h0s-.08-.03-.1-.04c-.29.02-.55.11-.8.3-.25.19-.65.6-1.14,1.46-.46.81-.79,1.6-1.03,2.43-.24.83-.36,1.59-.36,2.28,0,.5.15.89.46,1.24.35.39.66.44.9.44.38,0,.83-.11,1.24-.98l.05-.1c.03-.05.04-.1.06-.14.6-1.26,1.21-2.04,1.89-2.45.67-.42,1.55-.63,2.66-.63.8,0,1.36.11,1.78.34.61.35.96.97.96,1.71,0,.49-.16,1.11-2.06,4.21-.16.26-.31.5-.43.71-.11.16-.2.32-.28.44v.02s-5.25,8.41-5.25,8.41c-.51.78-.87,1.45-1.08,1.98-.18.47-.27.88-.27,1.23,0,.63.21.78.28.84.13.1.58.34,1.72.34.44,0,1.06-.02,1.8-.04.82-.04,1.43-.05,1.81-.05"/>
      <path class="cls-3" d="M91.51,171.42h6.6c3.03,0,5.39.21,7.23.65l.07.02s.04,0,.05.02c.73-.06,1.49-.69,2.29-1.85.95-1.39,1.41-2.85,1.41-4.47,0-.69-.16-1.21-.47-1.58-.29-.32-.64-.46-1.15-.46-.13,0-.45.2-.86.97-.25.49-.44.8-.55.98l-.04.03c-.55.78-1.14,1.32-1.79,1.67-.67.36-1.45.53-2.39.53-.7,0-1.25-.12-1.68-.38h-.02c-.59-.37-.92-.98-.92-1.71,0-.39.1-.82.29-1.31.17-.43.44-.97.79-1.62h0s5.72-10.16,5.72-10.16c.55-1,.97-1.88,1.27-2.6.34-.83.37-1.17.37-1.24,0-.37-.12-.48-.25-.56-.2-.12-.71-.33-1.9-.33h-.65c-1.65.04-3.36.05-5.26.05h-5.32c-2.18,0-4.08-.21-5.64-.61h-.02s-.07-.03-.1-.04c-.3.02-.55.11-.8.3-.24.19-.64.6-1.13,1.46-.46.81-.8,1.6-1.03,2.42-.24.84-.37,1.6-.37,2.29,0,.5.15.89.46,1.24.35.39.66.44.9.44.38,0,.83-.11,1.24-.98l.13-.25c.6-1.25,1.2-2.03,1.89-2.44.67-.41,1.54-.62,2.66-.62.79,0,1.35.11,1.77.34h.02c.6.35.95.97.95,1.71,0,.49-.16,1.11-2.06,4.21-.16.25-.3.48-.42.69-.11.18-.21.34-.29.47v.02s-5.25,8.41-5.25,8.41c-.5.78-.87,1.44-1.07,1.97-.19.48-.28.89-.28,1.24,0,.61.21.77.28.84.18.13.64.34,1.72.34.43,0,1.06-.02,1.8-.05.81-.03,1.42-.04,1.81-.04"/>
      <path class="cls-3" d="M38.87,168.25c-.36.32-.69.72-.69,1.12,0,.24,0,.95,1.6,1.61,1.41.57,3.51.87,6.22.87s4.67-.27,5.94-.81c1.41-.59,1.41-1.28,1.41-1.58,0-.47-.49-.97-.9-1.3h0c-.09-.09-.16-.15-.23-.2-.04-.04-.08-.08-.11-.1l-.05-.04c-.58-.51-.96-1.02-1.15-1.53-.18-.45-.26-1.04-.26-1.86v-16.59c0-.19,0-.34-.02-.44-.1,0-.22-.02-.39-.02-1.07,0-2.54.2-4.36.58-1.84.38-3.65.91-5.37,1.57-1.38.53-1.96.91-2.21,1.14h-.01c-.22.22-.32.44-.32.76,0,.14,0,.57.86,1.07l.1.06c.11.07.19.11.24.15.76.5,1.3,1.17,1.58,2v.02c.24.71.35,1.86.35,3.6v1.07c0,2.08-.03,3.61-.08,4.55-.05,1.06-.15,1.76-.31,2.25-.16.53-.54,1.04-1.2,1.57l-.05.03-.05.03c-.07.04-.13.1-.18.13l-.33.28h-.03Z"/>
      <path class="cls-3" d="M45.82,137.82c-2.21,0-4.07.41-5.53,1.22-1.84,1.03-1.84,1.94-1.84,2.25,0,1.08.47,1.53.82,1.77.68.48,1.8.73,3.25.73,2.34,0,4.31-.43,5.82-1.29,1.94-1.1,1.94-2.14,1.94-2.48,0-.67-.26-1.12-.89-1.5-.78-.46-1.98-.7-3.57-.7"/>
      <path class="cls-1" d="M195.72,166.18h-.01c-.43-.24-.71-.41-.9-.52-.07-.3-.19-1-.28-2.58-.11-1.91-.17-4.76-.17-8.47,0-5.42.1-7.68.18-8.61.1-1.05.24-1.47.3-1.6.12-.09.34-.23.75-.44,2.1-1.14,2.54-2.58,2.54-3.6s-.37-2.74-2.84-3.65c-1.51-.56-3.92-.83-7.37-.83-3.94,0-6.62.29-8.19.86-2.56.94-2.95,2.79-2.95,3.81,0,.97.37,2.32,2.09,3.29.14.09.39.23.5.3.04.05.16.27.3.84.15.7.23,1.59.23,2.65v.64c0,.74-.03,1.1-.06,1.25-.18.06-.52.15-1.12.21-.71.08-1.62.11-2.73.11-1.56,0-2.15-.14-2.33-.19-.04-.1-.12-.39-.12-1v-1.89c0-1.64.16-2.08.2-2.16v-.02c.1-.21.33-.44.69-.64.9-.55,1.48-1.05,1.82-1.6h0c.34-.57.52-1.25.52-2.04,0-1.17-.5-2.75-2.89-3.62-1.55-.55-3.99-.82-7.45-.82s-5.9.32-7.65.98c-2.64.97-3.2,2.61-3.2,3.81,0,1.37.73,2.47,2.07,3.11.26.14.5.25.69.34.11.05.21.1.3.16.08.3.2.99.29,2.47.12,1.81.17,4.84.17,9.26,0,3.32-.1,5.86-.3,7.55-.14,1.29-.31,1.84-.4,2.03-.07.04-.19.08-.33.13h-.02c-2.29.91-2.77,2.47-2.77,3.62s.53,2.85,3.02,3.85c1.67.68,4.01,1.01,7.14,1.01h0c3.44,0,5.96-.33,7.73-1,2.64-1.01,3.19-2.68,3.19-3.91,0-1.34-.77-2.51-2.28-3.45-.16-.1-.3-.18-.41-.25-.06-.14-.17-.48-.28-1.2-.16-1.04-.25-2.37-.25-3.93,0-.92.06-1.29.1-1.43.21-.09.61-.21,1.29-.3.73-.1,1.71-.15,2.9-.15,1.48,0,2.09.12,2.3.19.06.15.16.53.16,1.39,0,1.1-.03,2.13-.1,3.09-.06.9-.12,1.55-.19,2.04-.05.04-.14.11-.29.19-.13.07-.23.12-.32.17-.04.03-.08.04-.11.06l-.07.04c-.76.45-1.34.98-1.7,1.58-.39.63-.59,1.37-.59,2.2,0,1.21.53,2.85,3.05,3.78,1.66.6,4.15.89,7.63.89s5.77-.3,7.38-.92c2.45-.94,2.96-2.61,2.96-3.85,0-1.4-.64-2.51-1.86-3.23Z"/>
      <path class="cls-3" d="M158.96,167.97c-1.23.49-1.23,1.07-1.23,1.35s0,1,1.5,1.6c1.37.56,3.46.83,6.24.83,3.09,0,5.4-.29,6.87-.84,1.63-.62,1.63-1.36,1.63-1.64,0-.45-.38-.92-1.14-1.4h-.02c-.15-.1-.27-.18-.38-.24-.07-.04-.13-.09-.19-.12l-.04-.03c-.59-.41-.92-1.17-1.18-2.73-.18-1.17-.28-2.63-.28-4.32,0-.96.06-1.62.19-2.08.23-.9.77-1.29,1.1-1.44.55-.29,1.27-.48,2.21-.6.84-.11,1.9-.17,3.21-.17,2.38,0,3.19.3,3.63.56h.03c1.1.7,1.22,2.3,1.22,3.44s-.04,2.25-.11,3.25c-.07,1.12-.15,1.92-.25,2.51v.08s-.04.07-.04.07c-.18.59-.65,1.1-1.44,1.55l-.05.03c-.12.06-.22.11-.3.16-.04.02-.08.03-.11.05-.4.24-.68.5-.84.76-.16.25-.23.56-.23.93,0,.29,0,.96,1.46,1.5,1.36.5,3.65.75,6.8.75s5.2-.26,6.52-.77c1.23-.48,1.4-1.07,1.4-1.58s-.19-.85-.65-1.12c-.4-.23-.73-.43-.97-.56-.23-.14-.48-.29-.66-.5h0s-.06-.08-.09-.12c-.27-.41-.54-1.17-.69-3.88-.11-1.95-.17-4.85-.17-8.61,0-4.42.06-7.39.2-8.84.17-1.81.5-2.75,1.14-3.24.25-.2.6-.42,1.16-.72,1.27-.68,1.27-1.27,1.27-1.46,0-.3,0-.91-1.25-1.38-.83-.3-2.65-.67-6.53-.67-4.47,0-6.47.39-7.36.71-1.2.43-1.36,1.02-1.36,1.53,0,.32.1.75.87,1.18.35.2.61.35.79.49l.03.03c.53.42.89,1.12,1.15,2.21.19.88.29,1.95.29,3.18v.64c0,1.04-.06,1.66-.18,2.07-.2.63-.59,1.09-1.12,1.32-.5.23-1.17.39-2.05.49-.78.08-1.79.12-2.98.12-2.43,0-3.23-.3-3.69-.59-1.19-.77-1.19-2.47-1.19-3.03v-1.89c0-1.54.12-2.51.4-3.14.3-.69.86-1.28,1.66-1.76.74-.45.96-.72,1.02-.8.11-.18.16-.44.16-.76,0-.28,0-.87-1.28-1.33-.87-.31-2.72-.68-6.63-.68-3.05,0-5.35.28-6.81.82-1.62.6-1.62,1.29-1.62,1.54,0,.29.05.63.71.94.27.13.5.24.69.34q.91.44,1.07.62l.06.07c.38.48.65,1.3.82,3.96.12,1.86.18,4.94.18,9.41,0,3.46-.1,6.02-.31,7.82-.26,2.35-.7,3.44-1.57,3.85-.17.09-.41.19-.72.3"/>
      <path class="cls-3" d="M138.81,167.35c-.11-.13-.32-.2-.48-.24-1.27-.33-1.8-1.09-2.02-1.67-.17-.44-.35-1.29-.35-4.12v-.74c0-.53.03-1.44.07-2.69.05-1.24.07-2.25.07-2.98,0-2.47-.83-4.28-2.53-5.54-1.78-1.32-4.52-1.99-8.13-1.99-3.31,0-6.06.57-8.17,1.7-1.9,1.01-2.82,2.13-2.82,3.44,0,.6.17,1.06.53,1.43.35.36.76.53,1.29.53.57,0,1.08-.14,1.57-.43.56-.33,1.17-.9,1.82-1.69h0c.09-.11.23-.28.4-.5,1.33-1.69,2.59-2.51,3.84-2.51s2.21.62,2.74,1.75c.42.89.61,2.17.61,4.02,0,.43-.02,1.09-.07,2.09v.05c-.02.18-.04.35-.06.48l-.19,1.24-1.23-.23c-.7-.13-1.39-.24-2.08-.32-.57-.06-1.11-.1-1.58-.1-2.75,0-5.07.71-6.91,2.12-1.76,1.35-2.61,2.97-2.61,4.92s.64,3.45,1.96,4.64c1.35,1.21,3.14,1.8,5.47,1.8.98,0,1.84-.11,2.54-.34.7-.23,1.48-.64,2.31-1.23l.04-.03c.07-.04.17-.12.3-.23.63-.5,1.14-.72,1.65-.72.79,0,1.45.62,2.04,1.29.29.3.54.57.76.77.24.23.53.4.85.5h.02c.36.13.84.19,1.46.19,1.91,0,3.55-.51,5.01-1.57,1.32-.94,1.98-1.88,1.98-2.8,0-.17-.04-.24-.09-.3ZM126.61,166.93c-.46.97-1.36,1.5-2.53,1.5-1.05,0-1.9-.43-2.46-1.27-.47-.69-.7-1.62-.7-2.82,0-1.28.31-2.31.91-3.07.67-.84,1.64-1.27,2.79-1.27.67,0,1.43.07,1.93.56l.05.05c.35.4.5.95.5,1.86,0,2.99-.25,3.93-.5,4.45Z"/>
      <path class="cls-3" d="M223.51,150.64c-2.35-2.17-5.35-3.21-9.18-3.21-1.88,0-3.71.3-5.42.9-1.71.6-3.25,1.47-4.58,2.58h-.01c-1.48,1.23-2.6,2.62-3.33,4.17-.74,1.54-1.11,3.26-1.11,5.11,0,1.57.34,3.12,1.02,4.6.69,1.51,1.67,2.85,2.98,4.08,1.13,1.08,2.44,1.89,3.88,2.43,1.47.54,3.12.82,4.88.82,2.05,0,3.97-.34,5.7-1,1.72-.64,3.3-1.64,4.7-2.93,1.25-1.21,2.23-2.61,2.9-4.17.67-1.56,1.01-3.24,1.01-4.99,0-3.51-1.12-6.25-3.43-8.38ZM217.12,166.91c-.62.93-1.52,1.43-2.6,1.43-.66,0-1.64-.23-2.53-1.3-.59-.7-1.09-1.68-1.52-3.01-.4-1.17-.74-2.45-.99-3.79-.24-1.35-.36-2.57-.36-3.67,0-1.55.21-2.71.66-3.57.55-1.06,1.5-1.64,2.65-1.64,2.5,0,3.7,3.09,4.09,4.11.92,2.35,1.39,5.17,1.39,8.39,0,1.26-.26,2.26-.79,3.07Z"/>
      <path class="cls-3" d="M312.06,150.18c-2.09-1.85-4.71-2.76-8-2.76-2.08,0-4.07.48-5.9,1.42-1.82.93-3.35,2.26-4.53,3.94v.02c-.77,1.03-1.35,2.17-1.75,3.4-.39,1.21-.59,2.47-.59,3.75,0,3.52,1.15,6.38,3.54,8.72,2.38,2.35,5.32,3.49,8.98,3.49,1.46,0,2.86-.2,4.18-.59,1.31-.39,2.57-.98,3.74-1.76.85-.56,1.5-1.16,1.94-1.77.39-.52.58-.98.58-1.37,0-.45-.1-.79-.31-1.04-.16-.2-.29-.26-.45-.27-.15.04-.64.23-1.97.93-1.54.8-3.02,1.21-4.4,1.21-1.89,0-3.58-.61-5.03-1.82-1.52-1.26-2.29-2.71-2.29-4.28,0-.7.34-1.3.94-1.61.39-.21.91-.3,1.78-.3h11.04c.85,0,1.06-.29,1.13-.38.11-.16.4-.71.4-2.15,0-2.75-1-4.97-3.05-6.79ZM307.13,156.54l-.02.02c-.45.28-1.18.47-3.29.47h-1.15c-1.16,0-1.84-.17-2.29-.56l-.03-.03c-.46-.43-.69-1.08-.69-1.98,0-1.26.43-2.36,1.27-3.27.85-.91,1.93-1.4,3.12-1.4s2.15.43,2.93,1.26h0c.74.82,1.11,1.85,1.11,3.07,0,.44,0,1.77-.98,2.42Z"/>
      <path class="cls-3" d="M31.07,140.62c-2.13-1.67-5.49-2.51-9.97-2.51-1.41,0-3.38.09-5.87.26-2.41.16-4.25.26-5.31.26-.16,0-.63,0-1.61-.07-.77-.04-1.42-.07-1.94-.07-1.97,0-2.91.28-3.36.5-.42.22-.58.5-.58.97,0,.18,0,.66,1.16,1.14.37.15.65.26.86.36.9.42,1.56,1.11,1.93,2.01h0c.3.77.45,1.92.45,3.51,0,7.19-.06,11.93-.18,14.47-.18,3.8-.51,4.63-.8,5.08-.17.28-.47.59-2.03,1.51-.85.5-.85.94-.85,1.13,0,.56.18,1.27,1.65,1.83,1.47.57,3.93.84,7.3.84,3.14,0,5.44-.27,6.81-.81,1.32-.52,1.49-1.19,1.49-1.72,0-.18,0-.67-.99-1.19-.47-.24-.8-.44-1.06-.63l-.04-.03c-.57-.47-.97-1.21-1.17-2.2-.17-.78-.25-1.9-.25-3.38,0-.21,0-.52.03-.96.01-.44.02-.76.02-.98v-1.33l1.32.12c.58.05,1.08.09,1.52.11.44.02.9.03,1.44.03,4.23,0,7.52-.97,9.78-2.89,2.23-1.89,3.31-4.5,3.31-7.97s-1.01-5.79-3.08-7.4ZM22.67,153.38c-1,1.21-2.36,1.82-4.04,1.82-.93,0-1.67-.49-1.98-1.3v-.03c-.13-.36-.27-.98-.27-2.96v-3.62c0-2.64.18-3.47.33-3.91h0c.35-.99,1.15-1.56,2.19-1.56,1.63,0,2.98.7,3.9,2.03.84,1.2,1.27,2.85,1.27,4.91,0,1.93-.48,3.48-1.41,4.62Z"/>
      <path class="cls-4" d="M182.7,86.1c6.12-.75,12.26-1.49,18.38-2.25,1.07,2.93,1.87,5.9,2.09,9.03.71,9.86-3.58,19.76-11.77,27.6-9.33,8.92-23.21,14.73-38.29,14.05-15.5-.71-27.24-8-32.81-18.44-5.02-9.42-4.47-20.43,1.48-30.35,5.09-8.49,13.36-14.77,22.21-18.49,9.07-3.81,17.81-4.81,27.56-3.79-1,4.21-2,8.43-3.01,12.64-.9,3.75-1.86,7.77-2.91,12.09,5.86-.71,11.54-1.42,17.07-2.09"/>
      <path class="cls-4" d="M169.28,56.47h1.03c8.66-.02,38.63,4.7,35.71,23-15.24,2.47-30.54,4.54-45.78,7l9.05-30Z"/>
      <g>
        <path class="cls-1" d="M151.78,84.88c4.06.36,8.53-1.78,9.56-5.26,1.12-3.78-2.25-6.47-5.97-6.82-3.75-.36-8.08,1.45-9.44,4.71-1.66,3.93,1.76,7.01,5.85,7.37ZM148.48,78.59c.74-1.77,3.62-3.32,6.62-3.03,3.03.29,3.95,2.03,3.58,3.27-.52,1.75-3.37,3.58-6.66,3.29-3.31-.29-4.09-2.23-3.54-3.53Z"/>
        <path class="cls-1" d="M143.39,87.32c-4.43-.37-9.52,2.18-11.4,6.09-2.2,4.59.87,8.7,6,9.06,4.86.35,10.09-2.65,11.59-6.84,1.58-4.41-1.64-7.93-6.19-8.31ZM146.98,94.7c-1,2.81-4.94,5.29-8.78,5.01-3.64-.25-4.87-2.66-3.7-5.09,1.31-2.72,5.22-4.81,8.67-4.52,3.31.27,4.6,2.41,3.81,4.61Z"/>
        <path class="cls-1" d="M150.99,104.44c-1.5,4.97,1.9,9.46,7.24,9.79,5.12.33,10.1-3.29,10.98-8.07.88-4.7-2.57-8.53-7.33-8.89-4.65-.35-9.54,2.68-10.89,7.16ZM166.49,105.66c-.6,3.25-4.21,6.05-8.08,5.8-3.74-.24-5.69-3.14-4.76-6.23.94-3.11,4.54-5.45,8.03-5.19,3.36.25,5.34,2.78,4.81,5.62Z"/>
        <path class="cls-1" d="M181.08,108.77c4.75.33,9-3,9.14-7.53.14-4.3-3.48-7.71-7.82-8.06-4.33-.35-8.58,2.44-9.18,6.75-.65,4.56,3.07,8.51,7.87,8.84ZM175.96,100.32c.36-2.58,3.06-4.62,6.21-4.37,3.14.25,5.36,2.65,5.28,5.2-.08,2.69-2.71,5.09-6.18,4.85-3.49-.24-5.7-3-5.31-5.69Z"/>
        <path class="cls-1" d="M206.02,79.47c1.3-8.17-3.96-13.63-10.95-17.18-8.45-4.73-20.16-6.26-25.06-6.25h-1.03s-2.13,7.07-2.13,7.07c-8.19-.48-14.81.74-22.86,4.12-8.85,3.71-17.11,10-22.21,18.49-5.95,9.92-6.5,20.93-1.48,30.35,5.56,10.44,17.31,17.74,32.81,18.44,15.08.68,28.96-5.12,38.29-14.05,8.19-7.83,12.48-17.74,11.77-27.6-.22-3.13-1.03-6.1-2.09-9.03-1.57.2-3.15.39-4.73.58-.05-.15-.08-.29-.13-.44-5.38.65-10.77,1.31-16.16,1.96-4.66.56-9.43,1.15-14.32,1.75l.63-2.17c13.21-2.05,26.45-3.91,39.64-6.04ZM201.94,75.88c-.75.12-1.51.23-2.26.35-.18-4.02-1.42-7.23-3.4-9.76,3.7,2.94,5.7,6.33,5.66,9.4ZM197.76,91.99c-.05-1.69-.3-3.28-.67-4.85.7-.09,1.41-.17,2.11-.26.61,1.95,1.06,4.18,1.2,6.2.64,8.89-3.22,18.02-10.92,25.39-8.79,8.41-21.95,13.93-36.24,13.28-14.69-.66-25.46-7.54-30.49-16.97-4.51-8.47-4.09-18.44,1.41-27.62,4.72-7.88,12.48-13.82,20.9-17.35,2.16-.91,4.4-1.65,6.68-2.26-1.62.57-3.31,1.25-5.15,2.06-7.55,3.32-14.44,8.84-18.43,16.18-4.56,8.37-4.5,17.44.03,25.06,4.92,8.26,14.62,14,27.13,14.66,12.23.65,23.65-3.75,31.55-10.73,7.1-6.28,11.12-14.43,10.88-22.78ZM183.03,88.85c3.85-.47,7.62-.93,11.32-1.38.35,1.49.59,3.1.63,4.6.21,7.37-3.33,14.78-9.95,20.62-7.37,6.51-18.07,10.66-29.57,10.05-11.75-.62-20.53-5.97-24.89-13.31-4.01-6.72-4.11-14.74.02-22.32,3.64-6.69,10-11.84,17.12-14.97,5.41-2.38,11.46-3.67,17.51-3.63l-4.33,14.35-.72,2.2s.04,0,.06,0h0c.15-.02.3-.05.45-.07l-.45,1.5c1.02-.16,2.04-.32,3.05-.48l-1.19,4.92h.02c-.04.17-.08.33-.12.5,7.01-.84,14.03-1.71,21.04-2.57ZM164.62,81.53l4.66-15.44,1.86-5.72c18.63.21,25.83,7.58,25.85,16.17-12.06,1.94-20.6,3.12-32.37,4.99Z"/>
        <path class="cls-1" d="M178.92,65.1c-3.75-.36-8.08,1.45-9.44,4.71-1.66,3.93,1.76,7.01,5.86,7.37,4.06.36,8.53-1.79,9.56-5.26,1.12-3.78-2.24-6.47-5.98-6.82ZM182.23,71.14c-.52,1.75-3.37,3.58-6.66,3.29-3.31-.29-4.09-2.23-3.54-3.53.74-1.77,3.62-3.32,6.62-3.03,3.02.29,3.95,2.03,3.58,3.27Z"/>
      </g>
      <g>
        <path class="cls-1" d="M57.61,184c1.13,0,2.22.25,3.27.74.49.23.84.35,1.03.35.14,0,.36-.04.67-.1.1-.02.21-.03.34-.03.4,0,.75.19,1.05.56.74.9,1.11,2.01,1.11,3.34,0,.94-.32,1.62-.96,2.05-.35.23-.74.35-1.17.35-.39,0-.71-.08-.96-.26-.25-.17-.49-.47-.72-.9-.33-.61-.6-1.05-.81-1.32-.21-.27-.46-.51-.77-.72-.75-.53-1.53-.79-2.35-.79s-1.43.29-1.9.86c-.47.58-.7,1.35-.7,2.31,0,1.33.34,2.55,1.01,3.65.91,1.48,2.22,2.21,3.92,2.21.63,0,1.25-.1,1.86-.31.61-.21,1.09-.48,1.43-.81.29-.28.53-.42.72-.42.27,0,.5.13.7.38.19.25.29.55.29.91,0,.45-.14.95-.41,1.51-.27.56-.6.99-.97,1.31-.16.13-.5.25-1.01.35-.29.05-.68.2-1.17.43-1.14.55-2.33.82-3.57.82s-2.58-.29-3.86-.87c-1.49-.67-2.67-1.7-3.54-3.09-.85-1.35-1.27-2.77-1.27-4.24,0-1.72.53-3.28,1.6-4.69.93-1.23,2.14-2.17,3.63-2.82,1.14-.49,2.31-.74,3.51-.74Z"/>
        <path class="cls-1" d="M72.46,188.59c1.34,0,2.48.34,3.42,1.02.49.36.84.78,1.04,1.25.2.47.3,1.11.3,1.93l-.02,1.73c0,1.2.08,1.97.25,2.33.08.17.17.28.24.32.08.05.24.09.49.13.25.04.37.2.37.49,0,.37-.15.76-.45,1.16-.3.4-.68.74-1.15,1.01-.58.34-1.19.51-1.82.51-.81,0-1.45-.28-1.92-.83-.16-.2-.31-.3-.45-.3-.15,0-.36.1-.61.29-.77.56-1.65.85-2.63.85s-1.83-.22-2.46-.65c-.41-.29-.73-.66-.97-1.12-.24-.46-.36-.94-.36-1.44,0-.8.32-1.51.97-2.13,1.01-.97,2.53-1.46,4.54-1.47.45,0,.73-.04.85-.13.12-.09.17-.3.17-.62,0-.82-.08-1.41-.25-1.78-.17-.37-.45-.55-.83-.55-.23,0-.44.07-.62.21-.18.14-.41.39-.68.77-.69.98-1.41,1.47-2.16,1.47-.38,0-.69-.11-.93-.34-.24-.22-.36-.52-.36-.88s.15-.74.45-1.11c.3-.37.7-.7,1.21-.97,1.4-.74,2.86-1.11,4.38-1.11ZM71.68,195.3c-.34,0-.64.14-.89.42-.25.28-.38.61-.38,1s.09.67.27.9c.18.23.41.34.71.34.62,0,.93-.52.93-1.56,0-.42-.04-.71-.13-.86-.09-.15-.26-.22-.5-.23Z"/>
        <path class="cls-1" d="M86.12,190.76h1.44c.24,0,.41.04.52.11.1.07.15.2.13.37l-.09,1.38c-.02.28-.06.45-.13.53-.07.07-.22.11-.46.11-.05,0-.18,0-.38-.02-.14,0-.25-.01-.35-.01-.32,0-.54.11-.66.32-.12.21-.17.62-.17,1.21,0,.81.09,1.5.27,2.05.07.24.17.42.3.53.13.11.35.21.65.3.68.2,1.02.58,1.02,1.12,0,.58-.4,1-1.19,1.25-.79.26-2.09.38-3.9.38-2.68,0-4.02-.53-4.02-1.6,0-.26.06-.46.17-.58.11-.12.36-.27.74-.43.41-.19.66-.53.74-1.03.13-.76.2-1.57.2-2.43,0-.39-.07-.65-.2-.81-.14-.15-.38-.22-.74-.21-.42,0-.68-.02-.8-.06-.12-.04-.17-.14-.16-.31l.09-1.46c.02-.24.06-.39.12-.45.07-.06.25-.09.55-.11.29-.02.43-.15.43-.42,0-.11-.1-.36-.31-.74-.36-.64-.53-1.28-.53-1.92,0-.94.32-1.71.97-2.31.95-.87,2.31-1.31,4.09-1.31,1.46,0,2.63.34,3.5,1.03.67.53,1.01,1.15,1.01,1.84,0,.5-.17.93-.5,1.27-.33.34-.75.52-1.24.52-.56,0-1.09-.19-1.6-.58-.12-.1-.42-.41-.88-.92-.33-.36-.66-.53-1-.53-.22,0-.4.08-.56.23-.15.15-.23.34-.23.57,0,.61.58,1.26,1.74,1.96.36.22.6.39.72.51.13.12.24.3.34.52.05.09.18.14.37.14Z"/>
        <path class="cls-1" d="M99.72,194.95h-5.45c-.24,0-.36.1-.36.31,0,.5.27.98.82,1.42.54.44,1.13.67,1.76.67.37,0,.78-.07,1.23-.21.45-.14.82-.32,1.12-.53.26-.19.47-.28.63-.28.2,0,.4.12.59.37.19.25.29.5.29.77,0,.56-.35,1.09-1.04,1.61-1.23.92-2.65,1.38-4.25,1.38s-2.98-.47-4.08-1.41c-.53-.46-.97-1.02-1.32-1.68-.46-.87-.68-1.79-.68-2.76,0-1.3.39-2.46,1.18-3.5.68-.9,1.55-1.56,2.6-2.01.79-.33,1.64-.5,2.56-.5,1.47,0,2.72.42,3.74,1.25.52.42.94.91,1.25,1.48.36.65.54,1.28.54,1.9,0,.5-.1.91-.31,1.23-.21.32-.48.48-.81.48ZM94.58,192.79h1.17c.49,0,.74-.23.74-.68,0-.42-.12-.76-.36-1.02-.24-.26-.55-.39-.94-.39-.43,0-.77.17-1.02.51-.23.32-.35.64-.35.96,0,.23.06.39.17.49.11.09.31.14.59.14Z"/>
        <path class="cls-1" d="M114.75,183.7c1.07,0,2,.21,2.77.64.77.43,1.16.94,1.16,1.54,0,.34-.13.65-.4.92-.27.27-.57.41-.9.41-.15,0-.27-.02-.37-.07-.1-.05-.35-.21-.77-.5-.36-.25-.74-.37-1.14-.37s-.72.15-.98.44c-.26.29-.39.66-.39,1.1,0,.6.23,1.03.7,1.27.12.06.48.13,1.05.21.47.05.71.37.71.96,0,.63-.26,1.1-.78,1.4-.23.13-.66.24-1.29.32-.36.05-.54.41-.54,1.06,0,.77.24,1.56.73,2.38.45.73,1.03,1.31,1.74,1.72.65.38,1.32.57,2.01.57.93,0,1.76-.28,2.47-.83.64-.5.96-1.14.96-1.9,0-.37-.14-.69-.43-.96-.29-.27-.64-.4-1.05-.4-.63,0-1.18.39-1.65,1.18-.2.34-.41.51-.63.51-.28,0-.52-.16-.72-.49s-.3-.71-.3-1.15c0-.94.33-1.79,1-2.53.67-.74,1.64-1.34,2.9-1.81,1.02-.38,1.65-.68,1.88-.89.27-.25.41-.51.41-.79,0-.15-.05-.29-.16-.41-.11-.12-.24-.17-.38-.17-.06,0-.2.04-.42.13-.05.02-.1.02-.16.02-.13,0-.25-.05-.34-.14-.1-.1-.15-.21-.15-.35,0-.33.16-.65.48-.94.29-.27.66-.49,1.12-.65.46-.16.93-.24,1.4-.24.86,0,1.61.22,2.25.66.36.25.65.58.86.99.21.41.31.85.31,1.3,0,.67-.22,1.32-.67,1.95-.45.63-1.07,1.15-1.85,1.56-.56.31-.85.58-.85.8,0,.16.19.36.57.59.35.22.62.51.83.89.2.38.31.78.31,1.21,0,.73-.28,1.47-.83,2.23-.83,1.14-2.08,2.01-3.77,2.63-1.4.52-2.98.78-4.73.78-2.31,0-4.29-.43-5.92-1.29-1.18-.61-2.1-1.5-2.75-2.68-.43-.77-.64-1.58-.64-2.45,0-.93.31-1.73.92-2.4.36-.4.75-.7,1.15-.9.29-.15.43-.29.43-.43,0-.07-.04-.17-.12-.3-.47-.81-.71-1.5-.71-2.06s.16-1.14.49-1.7c.33-.56.77-1.03,1.33-1.41.52-.35,1.12-.63,1.82-.83.7-.21,1.37-.31,2.03-.31Z"/>
        <path class="cls-1" d="M141.71,193.49c-.29,0-.48.09-.56.27-.08.18-.12.59-.12,1.24,0,.98.06,1.75.19,2.3.04.15.1.27.17.36.08.09.22.19.44.31.46.25.7.59.7,1.01,0,.51-.32.87-.97,1.08-.65.21-1.74.32-3.28.32-2.86,0-4.29-.54-4.29-1.62,0-.19.04-.33.13-.45.08-.11.28-.27.58-.47.34-.22.57-.49.69-.79.12-.31.2-.83.25-1.58.04-.55.06-2.52.06-5.9,0-1.07-.05-1.8-.16-2.19-.11-.39-.34-.67-.7-.85-.34-.16-.57-.31-.68-.45-.12-.13-.17-.31-.17-.53,0-.29.11-.54.33-.75.22-.21.53-.37.92-.47.33-.09.79-.13,1.37-.13.25,0,.89.04,1.91.12.19.02.5.02.92.02.7,0,1.62-.05,2.78-.14.73-.05,1.25-.08,1.54-.08,1.65,0,3.02.4,4.1,1.19.97.72,1.46,1.72,1.46,2.99,0,.71-.17,1.36-.51,1.94-.34.58-.81,1.02-1.4,1.32-.25.12-.37.27-.37.44,0,.22.19.41.57.54.81.29,1.41.74,1.79,1.33.38.6.65,1.51.81,2.74.07.51.17.84.3.99.13.15.44.3.92.43.15.05.27.15.37.3.1.15.15.32.15.5,0,.24-.09.48-.28.72-.19.24-.42.43-.72.57-.65.3-1.54.45-2.67.45-1.51,0-2.58-.4-3.23-1.19-.29-.36-.54-.8-.75-1.34-.2-.54-.45-1.38-.72-2.53-.18-.73-.4-1.25-.68-1.55-.27-.3-.67-.46-1.18-.49ZM141.03,187.58l-.13,2.7v.1c0,.28.04.46.12.56.08.09.25.14.49.14.68,0,1.17-.18,1.48-.53.31-.35.46-.91.46-1.69,0-1.49-.53-2.24-1.59-2.24-.3,0-.51.07-.64.21-.12.14-.19.39-.21.74Z"/>
        <path class="cls-1" d="M162.9,194.95h-5.45c-.24,0-.36.1-.36.31,0,.5.27.98.82,1.42.54.44,1.13.67,1.76.67.37,0,.78-.07,1.23-.21.45-.14.83-.32,1.12-.53.26-.19.47-.28.63-.28.2,0,.4.12.59.37.19.25.29.5.29.77,0,.56-.35,1.09-1.04,1.61-1.23.92-2.65,1.38-4.25,1.38s-2.98-.47-4.08-1.41c-.53-.46-.97-1.02-1.32-1.68-.46-.87-.68-1.79-.68-2.76,0-1.3.39-2.46,1.18-3.5.68-.9,1.55-1.56,2.6-2.01.79-.33,1.64-.5,2.56-.5,1.47,0,2.72.42,3.75,1.25.52.42.93.91,1.25,1.48.36.65.55,1.28.55,1.9,0,.5-.1.91-.31,1.23-.21.32-.48.48-.81.48ZM157.75,192.79h1.17c.49,0,.74-.23.74-.68,0-.42-.12-.76-.36-1.02-.24-.26-.55-.39-.94-.39-.43,0-.77.17-1.02.51-.23.32-.35.64-.35.96,0,.23.06.39.17.49s.31.14.59.14Z"/>
        <path class="cls-1" d="M169.41,188.6c.39,0,1.02.08,1.89.25.18.03.32.05.44.05.13,0,.39-.07.76-.21.18-.07.33-.1.45-.1.36,0,.71.23,1.08.68.29.36.53.76.72,1.19.19.43.28.81.28,1.12s-.11.57-.32.77c-.22.2-.49.31-.81.31-.27,0-.51-.07-.72-.2-.21-.13-.55-.42-1.03-.87-.49-.48-.9-.72-1.23-.72-.21,0-.4.08-.56.24-.16.16-.24.35-.24.56,0,.38.36.73,1.09,1.07,1.3.59,2.31,1.23,3,1.92.59.59.88,1.31.88,2.16,0,1.07-.47,1.97-1.41,2.69-.81.63-1.8.94-2.98.94-.3,0-.85-.05-1.65-.15-.75-.09-1.17-.13-1.26-.13-.1,0-.22.01-.35.03-.22.03-.39.05-.49.05-.36,0-.65-.09-.86-.28-.32-.29-.61-.74-.88-1.35-.27-.61-.4-1.14-.4-1.58,0-.71.28-1.07.83-1.07.22,0,.42.07.6.21.18.14.56.52,1.14,1.14.32.34.58.57.79.7.21.13.43.19.67.19.26,0,.46-.07.62-.2.15-.13.23-.31.23-.54,0-.35-.3-.66-.89-.95-1.24-.61-2.14-1.24-2.7-1.89-.55-.65-.83-1.4-.83-2.25,0-.92.28-1.71.85-2.38.8-.95,1.9-1.43,3.29-1.43Z"/>
        <path class="cls-1" d="M183.04,191.64v3.92c0,.46.12.84.34,1.14.23.29.52.44.87.44.3,0,.7-.14,1.2-.42.12-.07.23-.1.35-.1.19,0,.36.11.51.34.15.22.23.47.23.73,0,.48-.26.94-.79,1.38-1.1.94-2.43,1.4-3.99,1.4-1.24,0-2.23-.35-2.98-1.05-.75-.7-1.12-1.62-1.12-2.77v-5.35c0-.18-.02-.29-.06-.33-.04-.04-.15-.06-.33-.06h-1.2c-.22,0-.37-.04-.43-.11-.06-.07-.09-.25-.09-.52v-.51c0-.23.1-.4.27-.51l5.31-3.34c.13-.07.29-.1.49-.1h.94c.19,0,.32.05.39.13.06.09.1.26.1.53v1.56c0,.23.04.38.11.45.07.07.23.1.47.1h2.14c.29,0,.47.05.56.16.08.1.13.33.13.67v.68c0,.37-.05.63-.16.77s-.3.21-.59.21h-2.1c-.22,0-.36.04-.44.12-.08.08-.12.22-.12.44Z"/>
        <path class="cls-1" d="M193.89,188.59c1.34,0,2.48.34,3.42,1.02.49.36.84.78,1.04,1.25.2.47.29,1.11.29,1.93l-.02,1.73c0,1.2.09,1.97.26,2.33.08.17.17.28.24.32.08.05.24.09.49.13.25.04.37.2.37.49,0,.37-.15.76-.45,1.16-.3.4-.68.74-1.15,1.01-.58.34-1.19.51-1.82.51-.81,0-1.45-.28-1.92-.83-.16-.2-.31-.3-.45-.3-.15,0-.36.1-.62.29-.77.56-1.65.85-2.63.85s-1.83-.22-2.46-.65c-.41-.29-.73-.66-.97-1.12-.24-.46-.36-.94-.36-1.44,0-.8.33-1.51.97-2.13,1.01-.97,2.53-1.46,4.54-1.47.45,0,.73-.04.85-.13.12-.09.17-.3.17-.62,0-.82-.09-1.41-.26-1.78-.17-.37-.45-.55-.83-.55-.23,0-.44.07-.62.21-.18.14-.41.39-.68.77-.69.98-1.41,1.47-2.16,1.47-.38,0-.69-.11-.93-.34-.24-.22-.36-.52-.36-.88s.15-.74.45-1.11c.3-.37.7-.7,1.21-.97,1.4-.74,2.86-1.11,4.38-1.11ZM193.12,195.3c-.34,0-.63.14-.89.42-.25.28-.38.61-.38,1s.09.67.27.9c.18.23.41.34.71.34.62,0,.93-.52.93-1.56,0-.42-.04-.71-.13-.86-.09-.15-.26-.22-.5-.23Z"/>
        <path class="cls-1" d="M207.09,189.26v6.28c0,1.34.44,2.02,1.33,2.02.22,0,.45-.06.66-.19.22-.13.37-.28.45-.47.17-.37.26-1.2.26-2.48s-.04-2.13-.13-2.6c-.03-.19-.08-.33-.16-.42-.08-.09-.22-.19-.44-.31-.44-.23-.66-.53-.66-.88,0-.48.38-.81,1.14-1,1.44-.36,2.86-.53,4.25-.53.78,0,1.17.41,1.17,1.24,0,.09,0,.26-.01.52-.02.37-.03.82-.04,1.36v5.11c0,.26.22.5.67.72.38.19.57.46.57.81,0,.7-.82,1.23-2.47,1.61-.97.22-1.9.34-2.81.34-.37,0-.62-.04-.76-.13-.14-.08-.21-.25-.24-.5-.04-.48-.19-.72-.44-.72-.09,0-.18.02-.25.06-.08.04-.31.2-.71.47-.78.53-1.62.8-2.52.8-1.48,0-2.53-.43-3.14-1.29-.52-.72-.78-1.93-.78-3.63,0-.63,0-1.17.01-1.62v-.53c0-.66-.06-1.15-.18-1.47-.12-.31-.34-.56-.65-.74-.3-.15-.49-.28-.57-.37-.08-.09-.12-.22-.12-.38,0-.59.45-.98,1.33-1.17,1.51-.33,3.03-.5,4.54-.5.45,0,.68.19.68.58Z"/>
        <path class="cls-1" d="M222.24,188.67c.41,0,.66.06.75.17.09.12.17.49.24,1.11.04.34.16.51.36.51.16,0,.3-.11.44-.34.62-.97,1.43-1.45,2.42-1.45.7,0,1.28.23,1.73.68.21.22.39.51.53.86.14.35.21.69.21,1.01,0,.36-.09.74-.26,1.12-.17.38-.39.7-.66.94-.5.47-1.1.71-1.82.71-.39,0-.72-.07-.99-.21-.27-.14-.62-.42-1.05-.85-.16-.16-.31-.24-.45-.24-.22,0-.36.12-.42.36-.06.24-.1.76-.1,1.54,0,1.17.04,1.96.13,2.39.05.23.13.39.23.48.1.09.3.18.62.27.7.21,1.04.57,1.04,1.09,0,.32-.11.59-.34.83-.22.24-.52.39-.89.47-.74.15-1.83.23-3.27.23s-2.41-.12-3.12-.36c-.63-.22-.95-.59-.95-1.12,0-.4.23-.76.7-1.08.22-.15.38-.28.46-.4.08-.12.14-.28.17-.49.12-.7.19-2.01.19-3.91,0-.35-.04-.6-.12-.75-.08-.15-.23-.27-.46-.37-.55-.22-.82-.53-.82-.94,0-.37.19-.69.57-.96.38-.27,1.01-.53,1.9-.79,1.19-.36,2.2-.54,3.04-.54Z"/>
        <path class="cls-1" d="M235.9,188.59c1.35,0,2.48.34,3.42,1.02.49.36.84.78,1.04,1.25.2.47.3,1.11.3,1.93l-.02,1.73c0,1.2.08,1.97.25,2.33.09.17.17.28.24.32.08.05.24.09.49.13.25.04.37.2.37.49,0,.37-.15.76-.45,1.16-.3.4-.68.74-1.15,1.01-.58.34-1.19.51-1.82.51-.81,0-1.45-.28-1.92-.83-.16-.2-.31-.3-.45-.3-.16,0-.36.1-.62.29-.77.56-1.65.85-2.63.85s-1.83-.22-2.46-.65c-.41-.29-.73-.66-.97-1.12-.24-.46-.36-.94-.36-1.44,0-.8.32-1.51.97-2.13,1.01-.97,2.53-1.46,4.54-1.47.45,0,.73-.04.85-.13.12-.09.17-.3.17-.62,0-.82-.08-1.41-.25-1.78-.17-.37-.45-.55-.84-.55-.23,0-.44.07-.62.21-.18.14-.41.39-.68.77-.69.98-1.41,1.47-2.16,1.47-.38,0-.69-.11-.93-.34-.24-.22-.36-.52-.36-.88s.15-.74.45-1.11c.3-.37.7-.7,1.21-.97,1.4-.74,2.86-1.11,4.38-1.11ZM235.13,195.3c-.34,0-.64.14-.89.42-.25.28-.38.61-.38,1s.09.67.27.9c.18.23.41.34.71.34.62,0,.93-.52.93-1.56,0-.42-.04-.71-.13-.86-.09-.15-.26-.22-.5-.23Z"/>
        <path class="cls-1" d="M256.8,192.88l.16,4.08c.02.31.06.54.14.68.08.15.32.43.71.85.12.12.17.3.17.52,0,.51-.3.87-.92,1.07-.61.2-1.7.3-3.27.3-1.07,0-1.82-.09-2.26-.28-.46-.19-.68-.51-.68-.94,0-.15.02-.27.07-.34.05-.07.2-.25.46-.54.31-.32.46-1.41.46-3.25,0-1.07-.12-1.86-.37-2.36-.2-.41-.57-.61-1.11-.61s-.87.17-1.07.5c-.19.33-.29.94-.29,1.81v2.29c0,.46.03.77.09.94.06.17.25.5.57.99.08.14.13.3.13.48,0,.46-.32.79-.95,1.01-.63.22-1.62.32-2.97.32-2.15,0-3.22-.44-3.22-1.33,0-.19.03-.33.1-.42.06-.1.22-.23.47-.41.2-.15.33-.32.38-.5.05-.19.1-.65.15-1.4.05-.88.08-1.8.08-2.77,0-.53-.04-.88-.12-1.05-.08-.17-.31-.37-.7-.61-.33-.21-.5-.46-.5-.77s.13-.56.41-.76c.27-.2.83-.45,1.67-.75.74-.26,1.46-.48,2.14-.67.69-.18,1.16-.27,1.41-.27.23,0,.43.09.59.25.16.17.24.37.24.6,0,.02,0,.12-.01.29,0,.06-.01.12-.01.16,0,.37.15.56.46.56.19,0,.38-.15.59-.44.66-.96,1.63-1.44,2.9-1.44.97,0,1.81.26,2.5.77.49.36.83.79,1.02,1.28.19.49.31,1.21.36,2.16Z"/>
        <path class="cls-1" d="M265.55,191.64v3.92c0,.46.11.84.34,1.14.23.29.52.44.87.44.3,0,.7-.14,1.19-.42.12-.07.23-.1.35-.1.19,0,.36.11.51.34.15.22.23.47.23.73,0,.48-.26.94-.79,1.38-1.1.94-2.43,1.4-3.99,1.4-1.24,0-2.23-.35-2.98-1.05-.75-.7-1.12-1.62-1.12-2.77v-5.35c0-.18-.02-.29-.06-.33-.04-.04-.15-.06-.33-.06h-1.19c-.22,0-.37-.04-.43-.11-.06-.07-.09-.25-.09-.52v-.51c0-.23.1-.4.27-.51l5.31-3.34c.13-.07.29-.1.49-.1h.94c.19,0,.32.05.39.13.07.09.1.26.1.53v1.56c0,.23.04.38.11.45.07.07.23.1.47.1h2.14c.29,0,.47.05.56.16.09.1.13.33.13.67v.68c0,.37-.05.63-.16.77-.11.14-.3.21-.59.21h-2.1c-.22,0-.36.04-.44.12-.08.08-.12.22-.12.44Z"/>
      </g>
      <path class="cls-2" d="M163.31,2.77c-54.82,0-100.4,40.96-107.68,93.83h35.85c6.9-33.32,36.5-58.5,71.83-58.5s64.94,25.18,71.84,58.5h35.82C263.69,43.73,218.14,2.77,163.31,2.77Z"/>
      <path class="cls-4" d="M271.32,99.38C265.28,45.17,219.09,2.77,163.31,2.77S62.55,44.06,55.55,97.25h-.97v18.76h49.94v-18.76h-13.17c6.65-33.64,36.41-59.14,71.96-59.14s66.56,26.59,72.35,61.28h-14.41v16.63h50.72v-16.63h-.65Z"/>
      <path class="cls-1" d="M273.78,96.61C266.48,42.19,219.67,0,163.31,0S60.88,41.75,52.88,96.61h-1.08v22.18h55.49v-22.18h-12.92c7.33-32.14,34.99-55.73,68.93-55.73s61.62,23.63,68.92,55.73h-13.76v22.18h56.27v-22.18h-.97ZM124.68,9.89c11.64-4.45,24.23-6.95,37.37-7.1v35.34c-7.88.13-15.45,1.52-22.54,3.96l-14.83-32.21ZM136.89,43.05c-7.05,2.74-13.58,6.53-19.38,11.2l-26.23-24.06c9.06-8.04,19.46-14.6,30.82-19.28l14.79,32.14ZM164.83,2.79c12.87.18,25.21,2.61,36.64,6.92l-14.13,32.46c-7.08-2.47-14.65-3.87-22.51-4.03V2.79ZM204.05,10.72c11.54,4.7,22.11,11.32,31.29,19.47l-25.97,24.25c-5.81-4.71-12.36-8.54-19.43-11.32l14.11-32.41ZM104.52,99.38v16.63h-49.94v-16.63h49.94ZM91.48,96.61h-35.85c1.61-11.71,5.11-22.83,10.16-33.06l32.99,13.12c-3.34,6.17-5.84,12.87-7.3,19.93ZM100.17,74.24l-33.11-13.17c5.73-10.88,13.25-20.68,22.16-29l26.14,23.98c-5.99,5.19-11.13,11.34-15.19,18.19ZM211.51,56.25l25.89-24.18c8.83,8.24,16.28,17.93,21.99,28.69l-33.01,13.33c-3.99-6.71-9.02-12.72-14.87-17.83ZM227.77,76.52l32.89-13.28c5.14,10.31,8.69,21.54,10.32,33.37h-35.82c-1.48-7.13-4-13.88-7.39-20.09ZM271.97,116.01h-50.72v-16.63h50.72v16.63Z"/>
    </g>
  </g>
</svg>