<?xml version="1.0" encoding="UTF-8"?>
<svg id="Layer_2" data-name="Layer 2" xmlns="http://www.w3.org/2000/svg" viewBox="0 0 324 324">
  <defs>
    <style>
      .cls-1, .cls-2 {
        stroke-width: 0px;
      }

      .cls-2 {
        fill: #fff;
      }
    </style>
  </defs>
  <g id="Layer_1-2" data-name="Layer 1">
    <g>
      <path class="cls-1" d="M324,154.08v15.84c-.11.64-.28,1.28-.32,1.93-.76,13.11-3.01,25.98-7.06,38.46-12.86,39.65-37.21,70.23-73.03,91.54-19.75,11.75-41.17,18.73-64.05,21.16-3.21.34-6.42.66-9.63.99h-15.48c-3.39-.33-6.79-.64-10.18-1.01-21.32-2.29-41.38-8.62-60.13-18.99-26.32-14.57-47.11-34.87-62.28-60.86-11.46-19.64-18.42-40.79-20.85-63.42-.35-3.27-.67-6.53-1-9.8,0-5.28,0-10.56,0-15.84.33-3.21.65-6.42.99-9.63,2.22-21.21,8.47-41.19,18.74-59.84,16.04-29.12,38.86-51.41,68.38-66.73C105.8,8.7,124.61,3.08,144.45.99,147.66.65,150.87.33,154.08,0c5.28,0,10.56,0,15.84,0,.64.11,1.29.27,1.93.31,12.93.76,25.6,2.98,37.95,6.89,34.71,10.99,62.78,31.28,84.03,60.82,16.44,22.86,26.14,48.4,29.18,76.42.35,3.21.66,6.42.99,9.64ZM19.45,161.96c.02,78.69,64,142.67,142.61,142.6,78.62-.07,142.45-63.91,142.5-142.52.05-78.61-63.97-142.63-142.61-142.59-78.58.04-142.52,63.99-142.5,142.52Z"/>
      <g>
        <path class="cls-1" d="M243.35,120.01c5.71,0,11.19,0,16.67,0,1.51,0,3.04-.06,4.54.04,3.9.27,6.39,2.9,6.41,6.81.03,8.71.04,17.42,0,26.14-.02,4.08-2.67,6.71-6.8,6.75-6.19.06-12.37.02-18.56.03-.68,0-1.36,0-2.26,0,0,.89,0,1.63,0,2.36,0,23.86,0,47.72,0,71.59,0,3.78-.41,4.21-4.28,4.21-6.5,0-13,0-19.51-.02-.87,0-1.74,0-2.77,0,0,5.01,0,9.79,0,14.57,0,3.58-.55,4.13-4.21,4.13-36.04,0-72.09,0-108.13,0-7.89,0-15.78.02-23.67,0-3.1,0-3.77-.72-3.77-3.8,0-21.78,0-43.56,0-65.34,0-3.23.67-3.89,3.85-3.89,11.49,0,22.98,0,34.47,0,.5,0,1.01,0,1.81,0,0-.68,0-1.28,0-1.88,0-36.42,0-72.85,0-109.27,0-.38,0-.76,0-1.14,0-3.29.64-3.94,4.02-3.95,11.43-.01,22.85,0,34.28,0,16.48,0,32.95.03,49.43,0,1.77,0,3.09.54,4.34,1.81,10.77,10.84,21.57,21.64,32.41,32.4,1.27,1.26,1.8,2.57,1.77,4.35-.09,4.6-.03,9.2-.03,14.09ZM238.38,233.04v-73.18c-.72-.03-1.33-.09-1.95-.09-8.08,0-16.16.08-24.24-.09-1.64-.03-3.46-.74-4.84-1.67-1.99-1.34-2.22-3.69-2.22-5.96,0-7.95.02-15.91,0-23.86-.02-5.74,2.38-8.19,8.15-8.2,7.7-.01,15.4,0,23.1,0,.67,0,1.33-.05,1.97-.08v-13.16c-.82,0-1.5,0-2.19,0-9.47,0-18.94,0-28.4,0-3.15,0-3.78-.65-3.78-3.76,0-9.53-.01-19.06-.02-28.59,0-.67,0-1.34,0-2.06h-81.84v111.27c.68,0,1.23,0,1.79,0,29.67,0,59.33,0,89-.01,3.22,0,3.9.67,3.9,3.85,0,14.45,0,28.91-.01,43.36,0,.73,0,1.45,0,2.24h21.58ZM211.85,188.6H82.03v63.05h129.82v-63.05ZM238.06,124.89c-8.45,0-16.91,0-25.36,0-2.22,0-2.68.43-2.69,2.62-.01,8.14-.01,16.28,0,24.42,0,2.68.29,2.98,2.91,2.98,16.78,0,33.56,0,50.34,0,2.59,0,2.84-.26,2.84-2.83.01-8.14,0-16.28,0-24.42,0-2.51-.28-2.77-2.88-2.77-8.39,0-16.78,0-25.17,0ZM234.07,101.82c-8.37-8.41-16.81-16.89-25.12-25.24v25.24h25.12Z"/>
        <path class="cls-1" d="M96.71,122.21c0-13.19,0-26.38,0-39.56,0-3.16.59-3.77,3.74-3.81,2.21-.03,4.42-.03,6.62,0,2.52.05,3.26.8,3.26,3.33,0,23.47-.15,46.95.1,70.42.08,7.61-.79,14.92-3.24,22.08-.51,1.49-.7,3.11-1.38,4.5-.4.81-1.47,1.77-2.25,1.78-.78.02-2.08-.93-2.29-1.68-2.1-7.67-5-15.1-4.67-23.38.45-11.21.11-22.46.11-33.69ZM101.71,83.75v76.89h3.59v-76.89h-3.59ZM102.37,165.66c.35,1.23.65,2.3.96,3.37.13,0,.27-.02.4-.02.3-1.07.6-2.14.93-3.34h-2.29Z"/>
        <path class="cls-1" d="M77.01,137.55c0-12.81-.03-25.62.03-38.43,0-1.73.3-3.51.73-5.19,1.06-4.15,2.28-8.26,3.44-12.38.39-1.41.95-2.68,2.72-2.63,1.67.05,2.14,1.3,2.51,2.63,1.24,4.43,2.52,8.84,3.72,13.28.31,1.14.48,2.35.48,3.53.03,26.38.02,52.75.02,79.13,0,2.93-.74,3.67-3.71,3.68-2.15.01-4.29,0-6.44,0-2.71-.01-3.49-.78-3.5-3.5,0-13.38,0-26.75,0-40.13ZM82.02,99.32v76.87h3.64v-76.87h-3.64ZM85,94.35c-.37-1.26-.68-2.29-.98-3.33-.13,0-.26,0-.4,0-.31,1.06-.63,2.12-.98,3.33h2.36Z"/>
        <path class="cls-1" d="M128.36,92.07c-.17-6.76,5.28-12.4,12.2-12.62,6.58-.21,12.33,5.33,12.58,12.09.24,6.68-5.33,12.5-12.15,12.69-6.77.19-12.45-5.28-12.63-12.17ZM148.25,91.89c0-4.15-3.27-7.52-7.34-7.56-4.28-.04-7.83,3.43-7.76,7.58.07,4.12,3.58,7.56,7.69,7.53,4.02-.03,7.41-3.49,7.41-7.55Z"/>
        <path class="cls-1" d="M106.38,207.75c6.87.03,12.32,5.53,12.34,12.44.01,6.75-5.72,12.38-12.51,12.3-6.74-.08-12.28-5.69-12.23-12.38.05-6.93,5.53-12.39,12.4-12.36ZM113.85,220.27c.04-4.23-3.22-7.64-7.39-7.74-4.09-.1-7.55,3.31-7.65,7.51-.09,4.14,3.3,7.56,7.51,7.56,4.17,0,7.49-3.23,7.53-7.33Z"/>
        <path class="cls-1" d="M183.11,210.87c-3.98,0-7.95.02-11.93,0-1.93-.02-2.97-.93-2.91-2.47.06-1.65,1.15-2.37,2.63-2.38,8.14-.04,16.28-.03,24.42,0,1.5,0,2.56.71,2.63,2.37.05,1.49-.94,2.46-2.72,2.48-4.04.05-8.08.02-12.12.02Z"/>
        <path class="cls-1" d="M183.27,218.02c3.85,0,7.7-.01,11.54,0,2.09,0,3.15.85,3.14,2.42,0,1.56-1.04,2.39-3.18,2.4-7.76.02-15.52.01-23.28,0-.31,0-.63-.01-.94-.06-1.43-.22-2.36-.96-2.28-2.5.08-1.52,1.04-2.25,2.5-2.26,4.16-.02,8.33,0,12.49,0h0Z"/>
        <path class="cls-1" d="M182.9,234.8c-3.85,0-7.7.01-11.54,0-2.09,0-3.12-.86-3.09-2.46.03-1.49,1.04-2.35,3.04-2.35,7.88-.03,15.77-.03,23.65,0,2.03,0,2.98.86,2.99,2.39,0,1.59-1.03,2.42-3.13,2.43-3.97.02-7.95,0-11.92,0Z"/>
        <path class="cls-1" d="M225.03,152.27c-6.75.06-12.37-5.44-12.41-12.15-.05-6.93,5.37-12.51,12.2-12.58,6.86-.07,12.41,5.37,12.51,12.27.1,6.83-5.4,12.4-12.29,12.46ZM217.47,139.96c-.01,4.09,3.28,7.44,7.39,7.52,4.14.08,7.63-3.35,7.63-7.49,0-4.21-3.34-7.58-7.51-7.58-4.23,0-7.5,3.3-7.51,7.56Z"/>
        <path class="cls-1" d="M250.36,138.17c-2.46,0-4.92.03-7.38,0-1.8-.03-2.83-.9-2.8-2.37.03-1.76,1.19-2.45,2.74-2.46,4.92-.05,9.84-.04,14.76,0,1.54.01,2.74.63,2.82,2.4.06,1.49-1.06,2.41-2.95,2.44-2.4.03-4.79,0-7.19,0Z"/>
        <path class="cls-1" d="M250.33,146.5c-2.46,0-4.92.03-7.38,0-1.79-.03-2.82-.93-2.78-2.39.04-1.65,1.1-2.41,2.58-2.43,5.04-.06,10.09-.06,15.13,0,1.47.02,2.56.75,2.6,2.41.04,1.44-1.03,2.38-2.78,2.41-2.46.04-4.92,0-7.38.01Z"/>
        <path class="cls-2" d="M144.04,91.83c-.02-1.72-1.55-3.28-3.25-3.29-1.83-.02-3.39,1.54-3.37,3.34.02,1.83,1.6,3.34,3.43,3.28,1.74-.05,3.21-1.59,3.18-3.33Z"/>
        <path class="cls-2" d="M106.29,216.82c-1.86.03-3.28,1.55-3.22,3.44.06,1.77,1.54,3.17,3.33,3.13,1.78-.03,3.23-1.5,3.23-3.25,0-1.88-1.48-3.35-3.35-3.32Z"/>
        <path class="cls-2" d="M228.23,139.92c0-1.9-1.47-3.35-3.34-3.3-1.78.05-3.18,1.49-3.2,3.28-.02,1.89,1.44,3.32,3.35,3.27,1.82-.04,3.19-1.44,3.19-3.26Z"/>
        <path class="cls-1" d="M144.04,91.83c.02,1.74-1.45,3.28-3.18,3.33-1.83.05-3.41-1.46-3.43-3.28-.02-1.81,1.54-3.36,3.37-3.34,1.69.02,3.22,1.57,3.25,3.29Z"/>
        <path class="cls-1" d="M106.29,216.82c1.87-.03,3.35,1.44,3.35,3.32,0,1.75-1.45,3.22-3.23,3.25-1.79.03-3.27-1.36-3.33-3.13-.06-1.89,1.35-3.41,3.22-3.44Z"/>
        <path class="cls-1" d="M228.23,139.92c0,1.81-1.37,3.21-3.19,3.26-1.91.04-3.37-1.38-3.35-3.27.02-1.79,1.42-3.23,3.2-3.28,1.87-.05,3.34,1.4,3.34,3.3Z"/>
      </g>
    </g>
  </g>
</svg>