<?xml version="1.0" encoding="UTF-8"?>
<svg id="Layer_2" data-name="Layer 2" xmlns="http://www.w3.org/2000/svg" viewBox="0 0 324 324">
  <defs>
    <style>
      .cls-1 {
        stroke-width: 0px;
      }
    </style>
  </defs>
  <g id="Layer_1-2" data-name="Layer 1">
    <g>
      <path class="cls-1" d="M324,154.08v15.84c-.11.64-.28,1.28-.32,1.93-.76,13.11-3.01,25.98-7.06,38.46-12.86,39.65-37.21,70.23-73.03,91.54-19.75,11.75-41.17,18.73-64.05,21.16-3.21.34-6.42.66-9.63.99h-15.48c-3.39-.33-6.79-.64-10.18-1.01-21.32-2.29-41.38-8.62-60.13-18.99-26.32-14.57-47.11-34.87-62.28-60.86-11.46-19.64-18.42-40.79-20.85-63.42-.35-3.27-.67-6.53-1-9.8,0-5.28,0-10.56,0-15.84.33-3.21.65-6.42.99-9.63,2.22-21.21,8.47-41.19,18.74-59.84,16.04-29.12,38.86-51.41,68.38-66.73C105.8,8.7,124.61,3.08,144.45.99,147.66.65,150.87.33,154.08,0c5.28,0,10.56,0,15.84,0,.64.11,1.29.27,1.93.31,12.93.76,25.6,2.98,37.95,6.89,34.71,10.99,62.78,31.28,84.03,60.82,16.44,22.86,26.14,48.4,29.18,76.42.35,3.21.66,6.42.99,9.64ZM19.45,161.96c.02,78.69,64,142.67,142.61,142.6,78.62-.07,142.45-63.91,142.5-142.52.05-78.61-63.97-142.63-142.61-142.59-78.58.04-142.52,63.99-142.5,142.52Z"/>
      <path class="cls-1" d="M184.16,98.6c-2.79,3.97-5.26,7.56-7.85,11.07-.32.44-1.27.57-1.92.57-14.94.03-29.88.02-44.82.02-16.98,0-33.96.03-50.94-.03-1.68,0-2.25.36-2.24,2.15.06,29.64.06,59.28,0,88.91,0,1.83.46,2.31,2.29,2.31,55.5-.05,110.99-.04,166.49-.04q2.42,0,2.42-2.44c0-29.4,0-58.8,0-88.19v-2.6h-30.91c.46-.67.65-1.02.91-1.3,2.87-3.14,5.72-6.31,8.67-9.38.54-.56,1.51-.99,2.29-1,7.44-.08,14.88-.08,22.32-.05,5.12.02,8.32,3.22,8.33,8.34.01,37.2.01,74.39,0,111.59,0,5.12-3.19,8.32-8.32,8.32-59.28,0-118.55,0-177.83,0-5.01,0-8.25-3.23-8.25-8.21-.01-37.2-.01-74.39,0-111.59,0-5.26,3.15-8.44,8.39-8.45,25.98-.01,51.95,0,77.93,0,10.2,0,20.4,0,30.6,0,.65,0,1.3,0,2.44,0Z"/>
      <path class="cls-1" d="M230.75,81.53c-.26,4.06-1.93,8.06-5.06,11.46-14.78,16.06-29.58,32.1-44.32,48.2-7.65,8.36-15.19,16.82-22.76,25.24-1.52,1.68-2.14,1.78-3.91.39-1.7-1.33-3.38-2.68-5.04-4.06-1.59-1.32-1.63-1.92-.41-3.63,8.65-12.09,17.34-24.15,25.94-36.28,10.64-15.02,21.19-30.1,31.79-45.15,2.58-3.66,5.95-6.23,10.33-7.34,7.47-1.88,13.55,2.93,13.45,11.18ZM212.24,80.96c2.78-2.73,5.42-5.32,7.97-7.82-4.17-.62-8.9,1.64-10.77,5.35,1,.88,2.02,1.78,2.8,2.47Z"/>
      <path class="cls-1" d="M141.86,234.77h40.25c.36,2.19.82,4.4,1.06,6.63.38,3.5,1.9,6.24,4.82,8.24,1.03.71,1.97,1.57,2.88,2.43.31.29.61.9.51,1.22-.1.3-.74.54-1.17.58-1.25.12-2.51.16-3.77.16-16.31,0-32.61,0-48.92,0-1.14,0-2.28-.02-3.41-.15-.54-.06-1.04-.39-1.56-.6.28-.5.46-1.11.86-1.48.91-.86,1.89-1.67,2.91-2.39,2.6-1.85,4.02-4.35,4.44-7.5.31-2.36.73-4.71,1.11-7.13Z"/>
      <path class="cls-1" d="M114.15,184.63c1.26-.09,2.23-.2,3.2-.23,8.6-.25,10.97-1.98,13.78-10.12.35-1.02.66-2.06,1.02-3.07,1.77-4.95,5.65-7.38,10.79-6.55,4.51.73,8.22,2.97,10.93,6.67,2.99,4.09,2.14,8.11-2.26,10.6-4.14,2.34-8.74,3.28-13.38,3.97-7.11,1.06-14.22,1.11-21.32-.12-.7-.12-1.39-.34-2.08-.54-.15-.04-.26-.22-.68-.61Z"/>
    </g>
  </g>
</svg>