<?xml version="1.0" encoding="utf-8"?>
<!-- Generator: Adobe Illustrator 28.1.0, SVG Export Plug-In . SVG Version: 6.00 Build 0)  -->
<svg version="1.1"
	 id="svg817" xmlns:inkscape="http://www.inkscape.org/namespaces/inkscape" xmlns:sodipodi="http://sodipodi.sourceforge.net/DTD/sodipodi-0.dtd" xmlns:svg="http://www.w3.org/2000/svg" xmlns:cc="http://creativecommons.org/ns#" xmlns:dc="http://purl.org/dc/elements/1.1/" xmlns:rdf="http://www.w3.org/1999/02/22-rdf-syntax-ns#" inkscape:version="0.92.3 (2405546, 2018-03-11)" sodipodi:docname="image.svg"
	 xmlns="http://www.w3.org/2000/svg" xmlns:xlink="http://www.w3.org/1999/xlink" x="0px" y="0px" viewBox="0 0 1000 420.6"
	 style="enable-background:new 0 0 1000 420.6;" xml:space="preserve">
<sodipodi:namedview  bordercolor="#666666" borderopacity="1" fit-margin-bottom="0" fit-margin-left="0" fit-margin-right="0" fit-margin-top="0" gridtolerance="10" guidetolerance="10" id="namedview819" inkscape:current-layer="svg817" inkscape:cx="539" inkscape:cy="0.63205701" inkscape:pageopacity="0" inkscape:pageshadow="2" inkscape:window-height="745" inkscape:window-maximized="1" inkscape:window-width="1366" inkscape:window-x="-8" inkscape:window-y="-8" inkscape:zoom="0.61131725" objecttolerance="10" pagecolor="#ffffff" showgrid="false">
	</sodipodi:namedview>
<path id="path815" inkscape:connector-curvature="0" d="M752.3,321.6L669,92.2l-0.1-0.2h-1.6l-17.2,47.1L618.9,225l-0.1-0.1
	c-10.8-9.5-26.1-15.5-45.3-17.7l-5.9-0.6l5.8-0.7c31.7-5.7,53-25.7,53-49.9c0-33.1-31.1-56.2-75.7-56.2H458v1.7h27v171L419.5,92.2
	l-0.1-0.2h-1.6l-17.2,47.1L334.5,321l-0.4,0c-1.1,0.1-2.2,0.3-3.4,0.3c-1.7,0.1-3.3,0.2-5,0.2h-66.8L386,101.5l0.9-1.7H231.5v68.1
	h1.6c0.3-33.2,19.6-66.4,62.3-66.4h51.5l-128,221.7h172.5V258h-1.6c-0.2,28.9-16.6,56.4-52.2,62.6l-1.1,0.2l27.1-74.6h76l27.4,75.4
	h-27v1.6h106.1v-1.6h-27.1V207.8h31.3c31.9,0,50.1,14.2,50.1,39V267c0,2.2,0.2,5.5,0.3,8.2v0.1l-16.8,46.2h-22v1.6h45.5v-1.6h-21.8
	l15.3-42.1c0,0.4,0,0.7,0,0.7l0.4,3.8l0.4,2.5c2.6,15.5,8.5,26.9,17.6,33.9l1.3,1c7,4.8,15.6,7.3,25.7,7.3
	c13.4,0,22.3-3.3,29.7-11.2l-1-0.9c-6.8,6.3-12.5,8.8-19.6,8.8c-12.2,0-18.5-14.7-18.5-29.3v-28.3c0.1-7-1-14-3.3-20.6l-0.3-0.9v0
	H689l27.4,75.4h-27v1.6h91.8v-1.6L752.3,321.6z M364.1,244.5l37.4-102.9l37.4,102.9H364.1z M518.8,206.1V101.5h23.9
	c31.9,0,48.8,19,48.8,54.9c0,38.2-9.7,49.8-41.4,49.8L518.8,206.1z M632.7,244.5l-0.2-0.4c-2.5-6-6.1-11.5-10.6-16.2l-1.6-1.6
	l-0.2-0.2l30.8-84.6l37.4,102.9L632.7,244.5z"/>
</svg>
